<svg width="80" height="80" viewBox="0 0 80 80" fill="none" xmlns="http://www.w3.org/2000/svg">
<path d="M10 54.1666C11.3807 54.1666 12.5 53.0473 12.5 51.6666V44.9999C12.5 43.6192 11.3807 42.4999 10 42.4999C8.61929 42.4999 7.5 43.6192 7.5 44.9999V51.6666C7.5 53.0473 8.61929 54.1666 10 54.1666Z" fill="#6E7281"/>
<path d="M10 40.8332C11.3807 40.8332 12.5 39.714 12.5 38.3332V33.3332C12.5 18.1454 24.8122 5.83325 40 5.83325C47.3577 5.83325 54.2506 8.73255 59.37 13.8126C60.35 14.7852 61.9329 14.7791 62.9055 13.799C63.878 12.819 63.8719 11.2361 62.8919 10.2635C56.8455 4.26348 48.6908 0.833252 40 0.833252C22.0507 0.833252 7.5 15.384 7.5 33.3332V38.3332C7.5 39.714 8.61929 40.8332 10 40.8332Z" fill="#6E7281"/>
<path d="M64.3807 15.671C63.1998 16.3865 62.8226 17.9238 63.5381 19.1047C66.1167 23.3604 67.5 28.2419 67.5 33.3332V51.6666C67.5 53.0473 68.6193 54.1666 70 54.1666C71.3807 54.1666 72.5 53.0473 72.5 51.6666V33.3332C72.5 27.3231 70.8637 21.5463 67.8144 16.5136C67.0989 15.3328 65.5616 14.9555 64.3807 15.671Z" fill="#6E7281"/>
<path d="M20 70.9661C21.3807 70.9661 22.5 69.8468 22.5 68.4661V33.3332C22.5 31.9525 21.3807 30.8332 20 30.8332C18.6193 30.8332 17.5 31.9525 17.5 33.3332V68.4661C17.5 69.8468 18.6193 70.9661 20 70.9661Z" fill="#6E7281"/>
<path d="M20.2757 29.1601C21.5807 29.6111 23.0042 28.9189 23.4552 27.6139C25.8723 20.6204 32.4799 15.8333 40 15.8333C49.665 15.8333 57.5 23.6683 57.5 33.3332V48.3332C57.5 49.714 58.6193 50.8332 60 50.8332C61.3807 50.8332 62.5 49.714 62.5 48.3332V33.3332C62.5 20.9068 52.4264 10.8333 40 10.8333C30.3314 10.8333 21.8377 16.9877 18.7295 25.9806C18.2785 27.2855 18.9707 28.7091 20.2757 29.1601Z" fill="#6E7281"/>
<path d="M60 52.4999C58.6193 52.4999 57.5 53.6192 57.5 54.9999V68.4661C57.5 69.8468 58.6193 70.9661 60 70.9661C61.3807 70.9661 62.5 69.8468 62.5 68.4661V54.9999C62.5 53.6192 61.3807 52.4999 60 52.4999Z" fill="#6E7281"/>
<path d="M30 77.522C31.3807 77.522 32.5 76.4027 32.5 75.022V54.9999C32.5 53.6192 31.3807 52.4999 30 52.4999C28.6193 52.4999 27.5 53.6192 27.5 54.9999V75.022C27.5 76.4027 28.6193 77.522 30 77.522Z" fill="#6E7281"/>
<path d="M30 50.8332C31.3807 50.8332 32.5 49.714 32.5 48.3332V33.3332C32.5 29.1911 35.8579 25.8333 40 25.8333C42.189 25.8333 44.2206 26.773 45.6383 28.3874C46.5493 29.4248 48.1289 29.5273 49.1664 28.6163C50.2039 27.7052 50.3064 26.1257 49.3953 25.0882C47.0386 22.4044 43.6437 20.8333 40 20.8333C33.0964 20.8333 27.5 26.4297 27.5 33.3332V48.3332C27.5 49.714 28.6193 50.8332 30 50.8332Z" fill="#6E7281"/>
<path d="M50 30.8332C48.6193 30.8332 47.5 31.9525 47.5 33.3332V75.022C47.5 76.4027 48.6193 77.522 50 77.522C51.3807 77.522 52.5 76.4027 52.5 75.022V33.3332C52.5 31.9525 51.3807 30.8332 50 30.8332Z" fill="#6E7281"/>
<path d="M42.5 31.6666C42.5 30.2859 41.3807 29.1666 40 29.1666C38.6193 29.1666 37.5 30.2859 37.5 31.6666V51.6666C37.5 53.0473 38.6193 54.1666 40 54.1666C41.3807 54.1666 42.5 53.0473 42.5 51.6666V31.6666Z" fill="#6E7281"/>
<path d="M42.5 61.6666C42.5 60.2859 41.3807 59.1666 40 59.1666C38.6193 59.1666 37.5 60.2859 37.5 61.6666V76.6666C37.5 78.0473 38.6193 79.1666 40 79.1666C41.3807 79.1666 42.5 78.0473 42.5 76.6666V61.6666Z" fill="#6E7281"/>
</svg>
