<svg width="210" height="210" viewBox="0 0 210 210" fill="none" xmlns="http://www.w3.org/2000/svg">
<circle cx="104.5" cy="104.5" r="42.5" fill="#6C78E6" fill-opacity="0.1"/>
<circle cx="105" cy="105" r="105" fill="#6C78E6" fill-opacity="0.1"/>
<path fill-rule="evenodd" clip-rule="evenodd" d="M93 92L94 103L95.3541 101.646C95.2856 102.087 95.25 102.539 95.25 103C95.25 107.832 99.1675 111.75 104 111.75C108.832 111.75 112.75 107.832 112.75 103C112.75 98.1675 108.832 94.25 104 94.25C103.539 94.25 103.087 94.2856 102.646 94.3541L104 93L93 92Z" fill="#F678BA"/>
<path fill-rule="evenodd" clip-rule="evenodd" d="M104 113C109.523 113 114 108.523 114 103C114 97.4772 109.523 93 104 93C98.4772 93 94 97.4772 94 103C94 108.523 98.4772 113 104 113ZM104 107C106.209 107 108 105.209 108 103C108 100.791 106.209 99 104 99C101.791 99 100 100.791 100 103C100 105.209 101.791 107 104 107Z" fill="white"/>
</svg>
