<svg width="53" height="59" viewBox="0 0 53 59" fill="none" xmlns="http://www.w3.org/2000/svg">
<g clip-path="url(#clip0_12501_15724)">
<path d="M3.7459 37.4993C3.7459 37.9379 3.66802 38.3058 3.51226 38.603C3.35829 38.9002 3.12912 39.124 2.82476 39.2744C2.52219 39.4248 2.1471 39.5 1.69951 39.5H0.759571V35.5737H1.82305C2.24199 35.5737 2.5938 35.6471 2.87847 35.7939C3.16314 35.9408 3.37887 36.1574 3.52568 36.4438C3.67249 36.7285 3.7459 37.0803 3.7459 37.4993ZM3.45586 37.51C3.45586 37.1358 3.39499 36.8234 3.27324 36.5728C3.1515 36.3221 2.9653 36.1341 2.71465 36.0088C2.464 35.8817 2.14621 35.8181 1.76128 35.8181H1.03618V39.2556H1.68608C2.2787 39.2556 2.72181 39.1106 3.01543 38.8206C3.30905 38.5287 3.45586 38.0919 3.45586 37.51ZM6.24287 39.5V35.5737H6.51948V39.5H6.24287ZM10.7782 37.5181H12.2203V39.3201C12.0323 39.3988 11.8318 39.4579 11.6188 39.4973C11.4057 39.5349 11.1792 39.5537 10.9393 39.5537C10.5222 39.5537 10.1703 39.4749 9.88389 39.3174C9.59922 39.158 9.38348 38.928 9.23667 38.6272C9.08986 38.3264 9.01646 37.9648 9.01646 37.5422C9.01646 37.1484 9.09613 36.7983 9.25547 36.4922C9.4166 36.186 9.64666 35.9461 9.94565 35.7725C10.2446 35.5988 10.6027 35.512 11.0199 35.512C11.2347 35.512 11.437 35.5317 11.6268 35.571C11.8184 35.6104 12.0001 35.6695 12.172 35.7483L12.0619 35.9954C11.8918 35.9166 11.7181 35.8575 11.5409 35.8181C11.3654 35.7787 11.1873 35.759 11.0064 35.759C10.652 35.759 10.3467 35.8351 10.0907 35.9873C9.83644 36.1377 9.64129 36.3472 9.50523 36.6157C9.37095 36.8825 9.30381 37.1904 9.30381 37.5396C9.30381 37.9352 9.36916 38.2638 9.49985 38.5251C9.63055 38.7865 9.82122 38.9826 10.0719 39.1133C10.3243 39.244 10.6305 39.3093 10.9903 39.3093C11.1873 39.3093 11.3636 39.295 11.5194 39.2664C11.6769 39.2377 11.8193 39.2001 11.9464 39.1536V37.7705H10.7782V37.5181ZM14.8086 39.5V35.5737H15.0852V39.5H14.8086ZM18.8202 39.5H18.5409V35.8235H17.268V35.5737H20.0932V35.8235H18.8202V39.5ZM24.7359 39.5L24.2015 38.1116H22.5525L22.0074 39.5H21.7254L23.2696 35.5603H23.522L25.0259 39.5H24.7359ZM24.1128 37.8618L23.5704 36.3901C23.556 36.3525 23.5381 36.3042 23.5167 36.2451C23.497 36.186 23.4755 36.1234 23.4522 36.0571C23.4307 35.9909 23.4092 35.9282 23.3877 35.8691C23.3698 35.9318 23.3501 35.9945 23.3287 36.0571C23.3072 36.1198 23.2866 36.1807 23.2669 36.2397C23.2472 36.297 23.2284 36.349 23.2105 36.3955L22.6465 37.8618H24.1128ZM27.1818 39.5V35.5737H27.4584V39.2476H29.3276V39.5H27.1818ZM34.6304 35.5737H35.7073C36.1925 35.5737 36.547 35.6498 36.7708 35.802C36.9963 35.9542 37.1091 36.1968 37.1091 36.5298C37.1091 36.6802 37.0796 36.8171 37.0205 36.9407C36.9632 37.0642 36.8773 37.1681 36.7627 37.2522C36.6499 37.3346 36.5103 37.391 36.3438 37.4214V37.4402C36.5425 37.4706 36.7063 37.5261 36.8352 37.6067C36.9659 37.6855 37.0626 37.7902 37.1252 37.9209C37.1897 38.0498 37.2219 38.2038 37.2219 38.3828C37.2219 38.6406 37.1628 38.8519 37.0447 39.0166C36.9283 39.1813 36.7663 39.3031 36.5586 39.3818C36.3509 39.4606 36.111 39.5 35.8389 39.5H34.6304V35.5737ZM34.907 37.3193H35.7771C36.1459 37.3193 36.4127 37.2549 36.5774 37.126C36.7421 36.9971 36.8245 36.8064 36.8245 36.554C36.8245 36.2926 36.7358 36.1046 36.5586 35.99C36.3813 35.8754 36.0976 35.8181 35.7073 35.8181H34.907V37.3193ZM34.907 37.561V39.2556H35.8308C36.1943 39.2556 36.4682 39.1822 36.6526 39.0354C36.837 38.8868 36.9292 38.6657 36.9292 38.3721C36.9292 38.1787 36.8862 38.0229 36.8003 37.9048C36.7144 37.7848 36.5854 37.698 36.4136 37.6443C36.2435 37.5888 36.0313 37.561 35.7771 37.561H34.907ZM42.1359 39.5L41.6015 38.1116H39.9525L39.4074 39.5H39.1254L40.6696 35.5603H40.922L42.4259 39.5H42.1359ZM41.5128 37.8618L40.9704 36.3901C40.956 36.3525 40.9381 36.3042 40.9167 36.2451C40.897 36.186 40.8755 36.1234 40.8522 36.0571C40.8307 35.9909 40.8092 35.9282 40.7877 35.8691C40.7698 35.9318 40.7501 35.9945 40.7287 36.0571C40.7072 36.1198 40.6866 36.1807 40.6669 36.2397C40.6472 36.297 40.6284 36.349 40.6105 36.3955L40.0465 37.8618H41.5128ZM47.4393 39.5H47.1573L44.837 36.0276H44.8235C44.8271 36.1243 44.8298 36.2227 44.8316 36.323C44.8352 36.4215 44.8379 36.5235 44.8396 36.6292C44.8432 36.733 44.845 36.8404 44.845 36.9514V39.5H44.5818V35.5737H44.8665L47.1788 39.0354H47.1922C47.1904 38.9566 47.1877 38.8653 47.1841 38.7615C47.1823 38.6576 47.1797 38.5511 47.1761 38.4419C47.1743 38.3327 47.1734 38.2297 47.1734 38.1331V35.5737H47.4393V39.5ZM52.7937 39.5H52.458L50.9379 37.4294L50.4277 37.9209V39.5H50.1511V35.5737H50.4277V37.6389C50.4939 37.5637 50.5629 37.4885 50.6345 37.4133C50.7079 37.3363 50.7813 37.2585 50.8547 37.1797L52.4042 35.5737H52.748L51.142 37.2361L52.7937 39.5Z" fill="white"/>
<g clip-path="url(#clip1_12501_15724)">
<path d="M41.399 27.4122H52V28.7793H41.399V27.4122ZM41.399 22.831H52V24.198H41.399V22.831ZM41.399 18.2511H52V19.6181H41.399V18.2511ZM18.6982 29C15.619 29 13.1232 26.5376 13.1232 23.5C13.1232 20.4624 15.6194 18 18.6982 18C21.7774 18 24.2732 20.4624 24.2732 23.5C24.2704 26.5362 21.776 28.9968 18.6982 29ZM18.6982 19.3671C16.3813 19.3671 14.5033 21.2202 14.5033 23.5055C14.5033 25.7909 16.3813 27.644 18.6982 27.644C21.015 27.644 22.893 25.7909 22.893 23.5055C22.8937 22.9613 22.7856 22.4223 22.5751 21.9195C22.3646 21.4167 22.0557 20.9599 21.6663 20.5755C20.8785 19.7979 19.811 19.3613 18.6982 19.3615V19.3671ZM36.4696 19.563V27.3888H28.5369V19.563H36.4696ZM37.8554 18.1959H27.1511V28.7558H37.8554V18.1959ZM0.5 18.2249H1.88574V28.7751H0.5V18.2249ZM9.72786 28.7282L4.45174 23.5235L9.77527 18.2718L10.7543 19.2374L6.41111 23.5235L10.7064 27.7626L9.72786 28.7282Z" fill="white"/>
</g>
</g>
<defs>
<clipPath id="clip0_12501_15724">
<rect width="53" height="59" fill="white"/>
</clipPath>
<clipPath id="clip1_12501_15724">
<rect width="51.5" height="11" fill="white" transform="translate(0.5 18)"/>
</clipPath>
</defs>
</svg>
