<svg width="40" height="40" viewBox="0 0 40 40" fill="none" xmlns="http://www.w3.org/2000/svg">
<circle cx="20" cy="20" r="20" fill="#231F29"/>
<path fill-rule="evenodd" clip-rule="evenodd" d="M13.1461 26.3432L12.8654 26.8161C12.7649 26.5045 12.5833 26.1811 12.4663 25.9525C12.2414 26.4129 11.8855 26.4223 11.5426 26.4244C11.6181 25.3218 10.2222 24.2129 10.8357 22.9549C10.9583 22.7033 10.8789 22.3955 10.6147 22.2635C9.67795 21.7916 10.1115 23.7494 9.17552 23.808C9.35471 23.586 9.42217 23.1214 9.44922 23.081C9.25035 23.1326 8.77287 23.4326 8.55889 23.0479C9.10595 22.7524 9.26335 22.3081 9.34908 21.862C9.458 21.2971 9.50789 21.0358 9.61892 20.8037C9.73381 20.5555 9.91898 20.3409 10.3142 19.8321C10.2204 19.8464 9.16673 20.0663 8.93062 19.9568C10.7517 18.8473 10.3413 17.4366 13.1194 16.1789C12.3911 15.6426 11.6459 15.2147 12.1803 14.1894C12.9413 15.0962 14.3875 14.7822 15.1685 14.3609C14.3966 14.2079 13.4023 13.5339 13.1658 12.7833C13.4571 12.7387 13.8337 13.0516 14.0505 13.1973C14.1549 12.9202 14.1963 12.5979 14.5347 12.5282C14.0835 13.4872 14.976 13.9856 15.8262 13.9897C15.958 13.9897 16.5086 13.9354 16.5086 13.9354C16.4211 13.7556 16.0652 13.2659 16.3241 13.0676C16.5318 13.2614 16.7798 13.4158 17.0061 13.5879C18.6606 14.8575 16.2198 16.035 15.2212 16.5689C13.6542 17.4087 14.0734 18.4075 14.7283 18.6633C14.7255 18.7769 14.6548 18.8264 14.5466 18.8616C14.0888 19.0131 13.6588 18.6894 13.2937 18.4817C13.3162 19.1086 13.273 19.7105 13.9708 20.0555L13.4894 20.2304C13.9037 20.5416 14.0294 20.7075 14.528 20.772C14.2951 20.8835 14.0062 20.8817 13.7589 20.9047C13.8214 21.0783 13.8731 21.3131 14.0038 21.4686C12.9835 21.5888 12.5755 21.011 12.26 21.0351C11.5872 21.0845 11.629 22.3408 13.2849 22.3426L13.1135 22.6238C13.1135 22.6238 13.4272 22.8054 13.7143 22.8402C13.6047 22.9287 13.4978 23.0479 13.4054 23.1389L13.67 23.3647C12.9944 23.4853 12.8025 22.7719 12.3644 23.1159C11.6958 23.6417 13.17 24.751 14.5839 24.5854C14.4648 24.7363 14.1331 24.958 13.9894 25.0736C15.1418 26.1533 14.5733 27.1691 15.0473 27.9135C14.0544 27.8483 13.3183 27.1252 13.1461 26.3432ZM14.4416 25.1291C14.7613 24.8771 15.0255 24.7516 15.0129 24.1435C14.5329 24.3864 13.1707 24.3735 12.6022 23.5964C12.4413 23.3762 12.6131 23.265 12.7688 23.4389C13.1577 23.8766 13.8791 23.678 14.1426 23.5515C14.1008 23.4016 13.9838 23.2051 13.8854 23.1214C13.9838 23.0249 14.262 22.882 14.3197 22.6356C14.1703 22.5555 13.5924 22.498 13.5924 22.498C13.6858 22.4102 13.8011 22.2861 13.7322 21.9582C13.1423 22.138 12.4132 21.8941 12.247 21.677C12.0844 21.464 12.2509 21.2644 12.3872 21.4048C12.6813 21.7115 14.131 22.0624 14.6703 21.5296C14.4697 21.4752 14.249 21.2971 14.209 21.1877C14.7079 21.1379 15.1063 20.8458 15.1387 20.4817C14.8628 20.4817 14.3414 20.4618 14.1644 20.3294C14.4036 20.2416 14.5544 20.1555 14.6299 19.8899C13.7171 19.8352 13.6447 19.1626 13.6401 19.0515C14.2343 19.3913 15.2806 19.2411 15.0101 18.4033C14.5168 18.3772 14.0178 17.5837 15.3776 16.8536C16.6129 16.1908 18.019 15.4757 17.8954 14.2975C17.8142 13.5447 16.563 13.0297 16.4042 12.6484C15.8821 12.8951 15.7764 13.1813 16.0118 13.6604C16.0118 13.6604 14.8491 13.7754 14.7574 13.0652C14.717 12.7463 14.9317 12.4484 15.1618 12.2212C15.0315 12.2212 14.1549 11.9884 13.8907 12.6969C13.3984 12.3644 12.9789 12.3763 12.6476 12.7272C13.176 13.0387 13.5035 14.1047 14.3766 14.4198C13.7554 14.7543 12.7509 14.6135 12.1645 13.5879C11.61 14.4166 11.2907 15.2373 12.48 16.1134C10.3149 17.0909 10.3308 18.9581 8.44787 19.8481C8.63935 20.3569 9.042 20.3569 9.55498 20.2775C8.74054 21.3271 9.43446 22.4245 8.14606 22.8733C8.26622 23.3013 8.5083 23.6421 8.98403 23.5173C8.84841 23.7268 8.75952 23.7222 8.54906 23.9522C9.25352 24.3924 10.089 24.0731 10.2784 22.6618C10.3121 22.4102 10.6624 22.5677 10.5409 22.8144C9.73768 24.4617 11.7685 25.7006 11.05 26.9088C11.6842 26.8826 12.1659 26.8338 12.4311 26.6213C12.5601 26.875 12.637 27.1259 12.6096 27.3733C12.9596 27.3033 13.0868 27.097 13.111 26.8628C13.3404 27.5252 14.1601 28.2341 15.4724 28.2341C14.7764 27.2517 15.4243 26.2533 14.4416 25.1291Z" fill="#D0D5D6"/>
<path fill-rule="evenodd" clip-rule="evenodd" d="M11.3293 22.4042C11.5683 22.6516 11.8585 22.6771 12.4083 22.6426C11.8044 22.5704 11.4653 22.4244 11.2545 22.0264C11.2232 21.8215 11.2029 21.602 11.1941 21.3671C11.1755 20.7363 11.3845 19.985 11.824 19.1626C11.8209 19.6787 12.2337 20.4896 13.1532 20.6248C12.3258 20.2662 11.8406 19.4584 12.1048 18.6775C12.2773 18.4043 12.4716 18.1224 12.6887 17.8363C12.798 17.6976 12.9038 17.5648 13.0078 17.4407C12.8964 17.8394 13.383 18.2509 13.708 18.3199C13.5313 18.1492 13.1532 17.5948 14.027 16.6678C13.7825 16.7817 13.5133 16.9438 13.3092 17.1023C14.897 15.4003 16.2015 15.3533 16.8013 14.4971C15.9328 15.086 13.6339 15.4038 12.6009 15.1254C13.1708 15.5035 14.5449 15.469 14.8808 15.3986C13.7603 16.4793 11.3139 17.5948 10.8905 18.5876C11.4871 17.9391 11.8718 17.8206 12.3876 17.6529C11.9815 18.2548 11.6153 18.7838 11.3631 19.3971C10.7124 20.7994 9.84208 20.8168 9.78516 21.9738C10.0817 21.0772 10.6843 20.8503 11.102 20.2617C11.0279 20.6374 10.9942 21.0538 11.0072 21.5354C11.0219 22.0581 11.127 22.5178 11.2949 22.929C11.2524 23.5009 11.3037 24.477 11.9646 25.1213C11.5159 24.5575 11.4193 23.6417 11.459 23.2841C11.9762 24.2742 13.4515 25.6413 14.1644 26.5602C13.4515 25.3785 11.7035 23.9975 11.3293 22.4042Z" fill="#D0D5D6"/>
<path fill-rule="evenodd" clip-rule="evenodd" d="M27.6528 17.6529C28.1668 17.8209 28.554 17.9391 29.1495 18.5876C28.7265 17.5948 26.2783 16.4786 25.1578 15.3983C25.4951 15.4686 26.8686 15.5035 27.4388 15.1254C26.4069 15.4038 24.1069 15.086 23.238 14.4971C23.8385 15.3533 25.142 15.401 26.7305 17.1023C26.5267 16.9438 26.2568 16.7817 26.0127 16.6678C26.8854 17.5948 26.5084 18.1485 26.3313 18.3199C26.6567 18.2509 27.1426 17.8397 27.0319 17.4407C27.1363 17.5648 27.2431 17.6976 27.351 17.8363C27.5695 18.1224 27.7624 18.4043 27.9346 18.6775C28.1991 19.4584 27.7121 20.2662 26.8872 20.6248C27.807 20.4903 28.2195 19.6787 28.2149 19.1626C28.6548 19.985 28.8653 20.7363 28.8453 21.3671C28.8375 21.602 28.8161 21.8215 28.7855 22.0264C28.574 22.4244 28.235 22.5708 27.6324 22.6426C28.1816 22.6771 28.47 22.6516 28.7117 22.4042C28.3361 23.9975 26.5885 25.3778 25.8753 26.5602C26.5885 25.6413 28.0621 24.2742 28.5803 23.2841C28.6207 23.6417 28.5238 24.5575 28.0765 25.1213C28.736 24.477 28.7873 23.5009 28.7451 22.9287C28.912 22.5174 29.0164 22.0581 29.0322 21.5354C29.048 21.0538 29.0111 20.6374 28.9377 20.2617C29.3554 20.8503 29.9576 21.0772 30.2549 21.9738C30.1987 20.8168 29.328 20.7994 28.6759 19.3971C28.4247 18.7838 28.0596 18.2548 27.6528 17.6529Z" fill="#D0D5D6"/>
<path fill-rule="evenodd" clip-rule="evenodd" d="M30.5929 23.0811C30.6182 23.1215 30.6842 23.5861 30.8638 23.8087C29.9271 23.7495 30.362 21.7917 29.425 22.2636C29.1608 22.3956 29.0817 22.7034 29.2047 22.955C29.8174 24.213 28.4208 25.3219 28.4992 26.4245C28.1541 26.4224 27.7958 26.413 27.5723 25.9526C27.4567 26.1812 27.2736 26.5046 27.1742 26.8162L26.8938 26.3433C26.7203 27.1253 25.9845 27.8487 24.9927 27.9136C25.4638 27.1692 24.8982 26.1534 26.0502 25.0737C25.9058 24.9591 25.5752 24.7364 25.4558 24.5855C26.8706 24.751 28.3449 23.6418 27.6749 23.116C27.2375 22.772 27.0446 23.4854 26.37 23.3648L26.6345 23.139C26.5421 23.0473 26.4343 22.9292 26.325 22.8403C26.6131 22.8055 26.9262 22.6239 26.9262 22.6239L26.7547 22.3427C28.411 22.3409 28.4507 21.0846 27.7803 21.0352C27.4655 21.0111 27.0555 21.5892 26.0362 21.4694C26.1651 21.3132 26.2182 21.0777 26.2811 20.9048C26.0358 20.8818 25.7442 20.8836 25.512 20.772C26.0105 20.7069 26.136 20.5417 26.5502 20.2305L26.0699 20.0556C26.767 19.7106 26.7245 19.108 26.7452 18.4818C26.3816 18.6899 25.9501 19.0132 25.4941 18.8617C25.3855 18.8265 25.3145 18.777 25.3117 18.6634C25.9666 18.4076 26.3837 17.4088 24.8188 16.569C23.8209 16.0351 21.379 14.8576 23.0339 13.5873C23.2598 13.4159 23.5065 13.2615 23.7148 13.0677C23.9745 13.266 23.6196 13.7557 23.5304 13.9355C23.5304 13.9355 24.0806 13.9905 24.2113 13.9905C25.0644 13.9857 25.9578 13.4866 25.5056 12.5283C25.8444 12.598 25.8841 12.9203 25.9877 13.1974C26.2052 13.0517 26.5822 12.7388 26.8742 12.7834C26.6374 13.534 25.6444 14.208 24.8718 14.361C25.6518 14.7823 27.0983 15.0963 27.8586 14.1895C28.3931 15.2148 27.6492 15.6427 26.9198 16.1794C29.6976 17.4367 29.2883 18.847 31.1101 19.9569C30.8743 20.0664 29.8185 19.8458 29.7243 19.8322C30.1217 20.341 30.3069 20.5556 30.4218 20.8038C30.5324 21.0359 30.5809 21.2969 30.6898 21.8621C30.7773 22.3082 30.9344 22.7525 31.4804 23.0473C31.2664 23.4327 30.7896 23.1327 30.5929 23.0811ZM30.4846 20.2775C30.9973 20.3567 31.4003 20.3567 31.5914 19.8479C29.7085 18.9582 29.7243 17.091 27.5593 16.1135C28.7493 15.2374 28.4282 14.4167 27.8759 13.5873C27.2902 14.6136 26.2825 14.7544 25.6641 14.4199C26.5362 14.1048 26.8643 13.0388 27.3924 12.7273C27.0621 12.3764 26.6395 12.3645 26.1493 12.697C25.8826 11.9881 25.0085 12.2213 24.8774 12.2213C25.1058 12.4481 25.3229 12.7464 25.2822 13.0653C25.1915 13.7755 24.0282 13.6609 24.0282 13.6609C24.2622 13.1814 24.1586 12.8952 23.6361 12.6485C23.4762 13.0305 22.2265 13.5448 22.146 14.2972C22.0209 15.4758 23.4271 16.1909 24.6628 16.8537C26.0221 17.5838 25.5232 18.3773 25.0306 18.4034C24.7576 19.2412 25.8046 19.3914 26.3995 19.0516C26.3967 19.1627 26.3215 19.8353 25.4087 19.89C25.4856 20.1556 25.636 20.2417 25.8756 20.3298C25.6968 20.4619 25.1768 20.4818 24.9006 20.4818C24.9336 20.8459 25.3321 21.1376 25.8314 21.1867C25.7913 21.2969 25.5703 21.4753 25.3697 21.5297C25.909 22.0625 27.358 21.7116 27.6528 21.4049C27.788 21.2645 27.9535 21.4641 27.7929 21.6767C27.6261 21.8942 26.8974 22.1381 26.3074 21.9583C26.24 22.2862 26.3538 22.4103 26.4462 22.4981C26.4462 22.4981 25.8689 22.5556 25.7196 22.6357C25.7755 22.8821 26.0562 23.025 26.1539 23.1215C26.0562 23.2052 25.9392 23.4017 25.8974 23.5516C26.162 23.6781 26.8836 23.8764 27.2698 23.439C27.4275 23.2651 27.5986 23.3759 27.4388 23.5965C26.8685 24.3736 25.5074 24.3858 25.0268 24.1436C25.0131 24.7517 25.278 24.8772 25.5981 25.1299C24.615 26.2534 25.2639 27.2518 24.5679 28.2342C25.8784 28.2342 26.6988 27.5253 26.929 26.8629C26.9543 27.097 27.0801 27.3034 27.4296 27.3734C27.4029 27.126 27.4809 26.8751 27.6074 26.6214C27.8738 26.8339 28.3572 26.8827 28.9889 26.9089C28.2715 25.7007 30.3026 24.4618 29.4977 22.8145C29.3782 22.5671 29.7278 22.4103 29.7616 22.6619C29.9499 24.0732 30.7865 24.3925 31.4913 23.9523C31.2787 23.7223 31.1919 23.7269 31.0563 23.5174C31.5306 23.6422 31.7731 23.3014 31.895 22.8734C30.6062 22.4246 31.2994 21.3265 30.4846 20.2775Z" fill="#D0D5D6"/>
<path fill-rule="evenodd" clip-rule="evenodd" d="M17.375 25.4167L17.7622 25.1253C17.8307 25.073 17.875 25.0406 17.954 25.0507L18.4993 25.1215C18.5292 25.2518 18.6163 25.3787 18.6163 25.3787L18.0363 25.257C17.954 25.2476 17.9301 25.2518 17.8525 25.3065L17.5781 25.5125C17.5236 25.5554 17.5222 25.6216 17.5531 25.6874L17.5974 25.7826L17.4052 25.9265L17.3321 25.7895C17.2577 25.6425 17.2524 25.5097 17.375 25.4167ZM18.2611 24.3998L18.1599 24.4527C18.0911 24.4928 18.0552 24.5106 17.9948 24.4353L17.9509 24.381C17.9294 24.3552 17.9221 24.2904 17.967 24.2419L18.3989 23.7418L18.0004 23.4181L18.5078 23.6035L18.6933 23.3738C18.7477 23.4205 18.7288 23.553 18.7288 23.553C18.934 23.553 19.5309 23.8467 19.5537 24.5838C19.5537 24.5838 19.6883 24.7817 19.8601 24.7922L20.7392 24.8444C20.8843 24.8444 21.2487 24.5695 21.717 24.8298C21.8354 24.7584 21.9619 24.7023 22.0923 24.6883C22.5047 24.658 22.8083 24.9431 23.0346 25.2295C23.1997 25.4376 23.426 25.7557 23.426 25.7557C23.3294 25.8704 23.2327 25.9091 23.1526 25.8798C23.03 25.8188 22.991 25.7209 22.9527 25.586C22.8909 25.372 22.6534 25.1891 22.6534 25.1891C22.7338 25.333 22.751 25.4958 22.7893 25.6453C22.4461 25.3086 22.3807 24.896 22.1411 24.8399C22.0343 24.8138 21.9113 24.8584 21.7961 24.9908C21.9176 25.2692 21.9113 25.5926 22.0353 25.8084C22.1295 25.97 22.1488 25.9843 22.1917 26.0199C22.2932 26.092 22.2353 26.2213 22.2198 26.3161L22.0894 27.1256H21.8706L22.015 26.3332C22.0589 26.092 21.3759 26.092 21.0263 25.632C20.728 25.977 19.8921 25.8906 19.5309 25.8369C19.3847 25.8157 19.2428 25.8244 19.1623 25.9669C19.116 26.0474 19.0366 26.0234 18.9888 26.0115L18.33 25.8704C18.214 25.8435 18.1638 25.8665 18.1121 25.9721L17.98 26.2429C17.9509 26.3063 17.9523 26.3523 18.0046 26.4029L18.0679 26.4698C18.0303 26.6005 17.9112 26.6987 17.9112 26.6987L17.7668 26.5381C17.6972 26.4572 17.6937 26.3391 17.7492 26.2241L17.9625 25.7829C17.9874 25.7345 18.0324 25.6812 18.123 25.6812L18.9385 25.6679L18.6887 25.2644C18.5025 24.9615 18.8113 24.4224 18.7653 24.1673C18.7421 24.5092 18.3261 24.3527 18.2611 24.3998ZM21.6559 26.2649L21.3038 27.1256H21.0849L21.4366 26.292C21.4732 26.1851 21.404 26.1342 21.3165 26.016C21.4468 26.0896 21.5406 26.1366 21.6991 26.198C21.6847 26.2213 21.6685 26.2352 21.6559 26.2649ZM17.3634 26.1673L17.7594 25.8345L17.699 25.7143C17.6561 25.6296 17.6793 25.6233 17.725 25.5902L17.9333 25.4355C17.9821 25.3961 18.0324 25.4006 18.0928 25.4149L18.7196 25.5613H18.058C17.9041 25.5714 17.8595 25.6296 17.8054 25.7414L17.7594 25.8345L17.5886 26.1812C17.5307 26.3008 17.5011 26.4597 17.6526 26.6402L17.7734 26.7817L17.5293 27.272H17.7351L17.9034 26.9312C17.9171 26.919 18.1666 26.6942 18.219 26.4597C18.1476 26.4025 18.096 26.3617 18.136 26.2799L18.2126 26.1178C18.2369 26.0634 18.246 26.0415 18.3187 26.0561L18.9782 26.198C19.0601 26.2196 19.1806 26.2555 19.2684 26.1241C19.3594 25.9871 19.3714 26.0025 19.5804 26.0234L19.9167 26.0586C20.3766 26.1018 20.8351 25.9871 21.014 25.8467C21.0761 25.9885 21.2005 26.0972 21.2589 26.207C21.2803 26.2474 21.2451 26.3053 21.2163 26.3771L20.8386 27.272H21.4208L21.7504 26.4544C21.7813 26.3771 21.8252 26.3147 21.86 26.2844L21.6706 27.272H22.2353L22.3853 26.2934C22.4183 26.0774 22.399 26.0063 22.2943 25.9178C22.0578 25.7209 22.0638 25.3065 21.9876 25.0549C22.028 25.0323 22.0736 25.0204 22.1295 25.0267C22.2528 25.0392 22.3452 25.3504 22.4903 25.5505C22.7788 25.9537 23.1748 26.399 23.627 25.7718C23.583 25.7007 23.5346 25.6348 23.4804 25.5731L23.3543 25.4268C23.2809 25.3456 22.9302 24.9486 22.7851 24.8051C22.4531 24.4747 21.9443 24.5245 21.7416 24.6848C21.282 24.4468 20.7975 24.6974 20.683 24.6883L19.8917 24.6409C19.8563 24.6385 19.8007 24.6259 19.7628 24.5653L19.9093 24.5176C19.7716 23.9495 19.4255 23.4735 18.8215 23.3923C18.8215 23.3923 18.786 23.2125 18.6943 23.178L18.5141 23.3892C18.4628 23.3961 18.4073 23.4111 18.362 23.431L17.5907 23.147L18.1698 23.7269C18.1698 23.7269 17.8694 24.1485 17.784 24.2346C17.7274 24.3134 17.733 24.3754 17.7959 24.4514L17.9087 24.5974C17.967 24.6726 18.0303 24.6702 18.123 24.6228L18.2502 24.5576C18.3043 24.5116 18.4913 24.6022 18.57 24.5301C18.519 24.6949 18.4944 24.8539 18.4818 24.9804L17.9625 24.9183C17.8483 24.9033 17.7973 24.9183 17.7274 24.972L17.2844 25.3104C17.1393 25.4208 17.0943 25.6115 17.1842 25.7962L17.3634 26.1673Z" fill="#D0D5D6"/>
<path fill-rule="evenodd" clip-rule="evenodd" d="M19.0552 15.0334C19.2667 15.1784 19.6409 15.3335 19.6409 15.3335V15.0864L18.8173 14.7734C18.8173 14.7734 18.8173 14.8735 19.0552 15.0334Z" fill="#D0D5D6"/>
<path fill-rule="evenodd" clip-rule="evenodd" d="M19.6409 14.7356V14.4909L18.7059 14.1592C18.7059 14.1592 18.8173 14.277 19.0552 14.4383C19.2667 14.5829 19.6409 14.7356 19.6409 14.7356Z" fill="#D0D5D6"/>
<path fill-rule="evenodd" clip-rule="evenodd" d="M19.6409 14.1778V13.9297L18.6174 13.5562C18.6174 13.5562 18.8174 13.7172 19.0552 13.8778C19.2667 14.0228 19.6409 14.1778 19.6409 14.1778Z" fill="#D0D5D6"/>
<path fill-rule="evenodd" clip-rule="evenodd" d="M22.5156 17.5434H23.563C23.5187 17.392 23.3561 17.2388 23.0511 17.2388C22.7616 17.2388 22.5887 17.4053 22.5156 17.5434Z" fill="#D0D5D6"/>
<path fill-rule="evenodd" clip-rule="evenodd" d="M21.4208 13.5562L20.3991 13.9297V14.1778C20.3991 14.1778 20.774 14.0231 20.9841 13.8778C21.2223 13.7172 21.4208 13.5562 21.4208 13.5562Z" fill="#D0D5D6"/>
<path fill-rule="evenodd" clip-rule="evenodd" d="M21.2223 14.7734L20.3991 15.0864V15.3335C20.3991 15.3335 20.7729 15.1784 20.9845 15.0334C21.2223 14.8735 21.2223 14.7734 21.2223 14.7734Z" fill="#D0D5D6"/>
<path fill-rule="evenodd" clip-rule="evenodd" d="M21.333 14.1592L20.3991 14.4909V14.7356C20.3991 14.7356 20.774 14.5829 20.9845 14.4383C21.2223 14.277 21.333 14.1592 21.333 14.1592Z" fill="#D0D5D6"/>
<path fill-rule="evenodd" clip-rule="evenodd" d="M16.9857 17.2388C16.6811 17.2388 16.5181 17.392 16.4752 17.5434H17.5222C17.4481 17.4053 17.2767 17.2388 16.9857 17.2388Z" fill="#D0D5D6"/>
<path fill-rule="evenodd" clip-rule="evenodd" d="M20.0196 13.4335L18.3388 12.7749C18.4811 12.4396 19.1406 12.1539 20.0196 12.1539C20.8991 12.1539 21.5575 12.4396 21.7002 12.7749L20.0196 13.4335ZM21.2715 15.492L20.1377 16.083V13.6952L21.6773 13.1767L21.2715 15.492ZM22.5965 16.488C22.1713 16.5611 21.8066 17.0772 21.5073 17.5407L21.4732 17.5947H21.1542L21.1538 17.6495C21.1197 18.0077 20.7772 18.4949 20.0193 18.4949C19.6693 18.4949 19.4058 18.3886 19.2245 18.2436C19.0668 18.1171 18.9688 17.9603 18.9206 17.8112C18.9027 17.7561 18.8915 17.7021 18.8862 17.6495L18.8841 17.5947H18.5668L18.5324 17.5407C18.2316 17.0772 17.8666 16.5611 17.4435 16.488L18.5998 15.8227L20.0196 16.5883L21.4384 15.8227L22.5965 16.488ZM24.1558 18.2436C24.0345 18.5573 23.9362 18.8963 23.9362 19.2358V22.8841H23.5086C23.315 22.6976 23.1505 22.0749 23.1505 22.0749C23.0444 22.2996 23.166 22.7523 23.2802 22.8841H22.7293C22.5926 22.7014 22.4745 22.0533 22.4745 22.0533C22.3098 22.2394 22.4141 22.7443 22.5163 22.8841H22.1509C22.1271 22.6251 22.2019 22.3425 22.2019 22.3425C22.0111 22.3077 21.8073 22.2073 21.808 21.9958C21.9046 22.0864 21.9433 22.085 22.0779 22.0825L22.2339 21.9609C21.717 21.9769 21.6938 21.4155 22.1021 21.1524C21.6938 21.1653 21.3878 20.9249 21.5375 20.4934C21.2459 20.3443 21.1436 19.8564 21.3586 19.6421C21.203 19.4741 21.177 19.1462 21.2768 18.9211C21.0705 18.9211 20.8386 18.8392 20.7093 18.7001C20.6995 18.7047 20.6879 18.7078 20.677 18.7113C20.9349 18.6071 21.1524 18.4451 21.3003 18.2436H24.1558ZM23.9372 25.4904C23.9372 26.2515 23.5831 26.8289 22.9938 27.1499L23.2053 26.7233H23.0009L22.73 27.269C22.4496 27.3746 22.1302 27.4321 21.7778 27.4321C20.702 27.4321 20.4177 27.476 20.0207 27.8691C19.6209 27.476 19.337 27.4321 18.2636 27.4321C17.9129 27.4321 17.5957 27.3753 17.3149 27.2718H17.323L17.5939 26.7233H17.3894L17.1516 27.2028C17.0946 27.176 17.0402 27.1474 16.9864 27.1164L17.1825 26.7233H16.9798L16.8343 27.0164C16.3733 26.6794 16.1024 26.1546 16.1024 25.4904V23.0984H23.9372V25.4904ZM18.6041 21.1218L18.9347 21.1622C18.9593 21.342 18.9118 21.6466 18.7934 21.8159L18.4741 21.7239C18.5591 21.5225 18.5809 21.3361 18.6041 21.1218ZM18.1287 20.8817C18.1287 20.8817 18.4315 20.867 18.5173 20.8991C18.5809 20.9252 18.5376 21.0301 18.4565 21.0193C18.3701 21.0085 18.1287 20.8817 18.1287 20.8817ZM18.1079 19.6874L17.8363 20.6733L17.9291 19.0842L18.3511 18.7263L18.5658 19.1936L18.0233 20.7363L18.1663 19.6975C18.18 19.625 18.1202 19.617 18.1079 19.6874ZM17.8989 21.3298C17.7562 21.3873 17.6104 21.3099 17.6554 21.2179C17.7215 21.2782 17.9063 21.2486 17.9063 21.2486L17.8989 21.3298ZM17.6315 21.4612C17.6969 21.5246 17.8961 21.5009 17.8961 21.5009L17.9042 21.5399C17.817 21.6549 17.5756 21.6034 17.6315 21.4612ZM17.3185 20.8273C17.2422 20.7768 17.2766 20.667 17.361 20.667C17.4534 20.6691 17.5767 20.7729 17.699 20.8252C17.699 20.8252 17.3796 20.8674 17.3185 20.8273ZM17.6213 21.6999C17.6213 21.6999 17.713 21.7389 17.8286 21.748C17.8149 21.8104 17.7668 21.8714 17.6881 21.8539C17.6231 21.84 17.5939 21.7591 17.6213 21.6999ZM17.836 21.105C17.6825 21.1545 17.6146 21.0451 17.622 20.9517C17.9221 20.8423 18.0556 20.9123 18.1445 20.9684C18.2253 21.0193 18.2917 21.1622 18.4013 21.2524C18.3827 21.3744 18.3448 21.5514 18.3005 21.6699C17.9938 21.5915 17.9772 21.3232 18.0928 21.159C18.0278 21.0845 17.9597 21.0657 17.836 21.105ZM19.1683 21.1925L19.4975 21.2312C19.5295 21.4117 19.4684 21.7916 19.344 21.9738L19.0088 21.8776C19.1427 21.7027 19.1919 21.3925 19.1683 21.1925ZM19.734 21.2612L20.0059 21.2953C20.0485 21.5183 20.0207 21.9052 19.877 22.1257L19.5608 22.0344C19.6992 21.848 19.7639 21.464 19.734 21.2612ZM20.2206 21.3211H20.2266C20.2972 21.3316 20.3713 21.3201 20.4392 21.2918C20.5857 21.5009 20.7002 21.9738 20.5242 22.2693C20.4248 22.2704 20.3267 22.2533 20.2354 22.2279L20.1626 22.2062C20.3109 21.9769 20.2888 21.5741 20.2206 21.3211ZM20.6352 21.1622L20.8271 20.9754C21.0242 21.1448 21.2813 21.5246 21.2005 21.8849L20.9908 22.0749C20.9483 22.1167 20.9029 22.1481 20.8576 22.1756C20.9883 21.8532 20.8211 21.3587 20.6352 21.1622ZM21.7648 21.2695C21.7226 21.3246 21.6879 21.3904 21.6661 21.4608L21.4324 21.6741C21.4792 21.3347 21.2497 20.9332 21.0396 20.7698L21.2891 20.5279L21.3379 20.5771C21.2546 20.7938 21.417 21.2179 21.7648 21.2695ZM21.1436 19.6278C21.0206 19.8606 21.0329 20.1293 21.1773 20.3725L21.0814 20.4659C20.6623 20.4147 20.4964 19.7944 20.4964 19.7944C20.4887 19.8484 20.4831 19.9052 20.4841 19.9592C20.2396 19.8697 20.0843 19.6543 20.0969 19.3588C20.1897 19.41 20.2937 19.4459 20.4047 19.4658L20.4328 19.2835C20.1398 19.233 19.9687 19.0514 19.903 18.8371C19.89 18.8354 19.877 18.8329 19.864 18.8305C19.9156 18.8354 19.9673 18.8392 20.0207 18.8392C20.1943 18.8392 20.3591 18.8127 20.514 18.7677C20.6356 18.9395 20.8516 19.0626 21.0688 19.087C21.0343 19.2281 21.0512 19.4069 21.1436 19.6278ZM18.739 18.2436C18.941 18.5182 19.2695 18.7214 19.6581 18.8016C19.6915 18.9465 19.7698 19.1047 19.9248 19.233C19.8608 19.6595 20.0453 20.0578 20.508 20.1641C20.5562 20.3809 20.6928 20.5454 20.9205 20.6234L20.5987 20.9921C20.4761 21.1336 20.3155 21.1793 20.1827 21.1622L18.7453 21.0005C18.8071 20.8416 18.642 20.6579 18.1873 20.7367L18.7523 19.1709L18.4073 18.4433L17.7541 18.996L17.706 20.6398L17.4291 20.5039C17.0634 20.3485 16.9569 21.0022 17.3041 21.005L17.4414 21.0064C17.433 21.0744 17.4534 21.1476 17.5068 21.1706C17.4414 21.1981 17.4221 21.3201 17.5043 21.3629C17.4203 21.4019 17.4105 21.5257 17.4769 21.58C17.4042 21.6999 17.3936 21.9627 17.6452 22.0285C17.8504 22.0825 17.9801 21.8619 18.0233 21.7341L20.2586 22.4209C20.5758 22.5108 20.8007 22.4606 21.0639 22.2317L21.6471 21.7257C21.5744 22.0564 21.6938 22.3551 21.9475 22.4533C21.9475 22.4533 21.911 22.7495 21.9229 22.8841H16.1024V19.2358C16.1024 18.8963 16.0037 18.5573 15.8853 18.2436H18.739ZM18.3613 13.1767L19.8998 13.6952V16.083L18.7667 15.492L18.3613 13.1767ZM22.0989 12.8923C22.0989 12.3079 21.1095 11.7852 20.0193 11.7852C18.9276 11.7852 17.9386 12.3079 17.9386 12.8923L17.9614 13.0345L18.3957 15.5146L16.3336 16.7068C16.114 16.8347 15.8389 17.187 15.8041 17.5407H16.1804C16.2423 17.1874 16.5248 16.7946 17.0518 16.8183C17.5279 16.8441 17.8089 17.1313 18.0893 17.5407L18.1613 17.6495L18.2653 17.8112H15.2325C15.4545 18.2548 15.6675 18.7252 15.6675 19.2358V25.4904C15.6675 27.0993 16.9141 27.8649 18.2636 27.8649C19.305 27.8649 19.4455 27.8186 20.0207 28.3887C20.5938 27.8186 20.7336 27.8649 21.7778 27.8649C23.127 27.8649 24.3736 27.0993 24.3736 25.4904V19.2358C24.3736 18.7252 24.5841 18.2548 24.8068 17.8112H21.7722L21.8776 17.6495L21.95 17.5407C22.2282 17.1313 22.5107 16.8441 22.9868 16.8183C23.5114 16.7946 23.7953 17.1874 23.8571 17.5407H24.2331C24.1993 17.187 23.9228 16.8347 23.7043 16.7068L21.6425 15.5146L22.0775 13.0345L22.0989 12.8923Z" fill="#D0D5D6"/>
<path fill-rule="evenodd" clip-rule="evenodd" d="M23.7591 20.6018L23.7616 20.4189C23.1966 20.406 23.0659 19.7432 23.0659 19.7432C22.9011 20.2307 23.3329 20.5935 23.7591 20.6018Z" fill="#D0D5D6"/>
<path fill-rule="evenodd" clip-rule="evenodd" d="M23.0444 21.7219L22.9868 21.5487C22.5051 21.671 22.2567 20.9131 22.2567 20.9131C22.1011 21.464 22.64 21.854 23.0444 21.7219Z" fill="#D0D5D6"/>
<path fill-rule="evenodd" clip-rule="evenodd" d="M23.3793 21.0195C22.8034 21.1101 22.5663 20.4448 22.5663 20.4448C22.5027 20.8069 22.7395 21.1739 23.12 21.2129C23.0343 21.6854 23.477 21.928 23.8603 21.7593L23.8051 21.5952C23.472 21.7046 23.16 21.3788 23.3793 21.0195Z" fill="#D0D5D6"/>
<path fill-rule="evenodd" clip-rule="evenodd" d="M23.0342 19.1208L23.0388 18.9382C22.2785 18.7821 22.3428 18.2632 22.3428 18.2632C22.178 18.7521 22.6094 19.1131 23.0342 19.1208Z" fill="#D0D5D6"/>
<path fill-rule="evenodd" clip-rule="evenodd" d="M18.214 26.7236L17.9407 27.2721H18.1462L18.4185 26.7236H18.214Z" fill="#D0D5D6"/>
<path fill-rule="evenodd" clip-rule="evenodd" d="M18.6244 26.7236L18.3525 27.2721H18.5591L18.8289 26.7236H18.6244Z" fill="#D0D5D6"/>
<path fill-rule="evenodd" clip-rule="evenodd" d="M20.2716 26.7236L20.0007 27.2721H20.2045L20.4764 26.7236H20.2716Z" fill="#D0D5D6"/>
<path fill-rule="evenodd" clip-rule="evenodd" d="M20.6851 26.7236L20.4111 27.2721H20.6173L20.8879 26.7236H20.6851Z" fill="#D0D5D6"/>
<path fill-rule="evenodd" clip-rule="evenodd" d="M19.8608 26.7236L19.5875 27.2721H19.793L20.0653 26.7236H19.8608Z" fill="#D0D5D6"/>
<path fill-rule="evenodd" clip-rule="evenodd" d="M22.2662 27.2721H22.4707L22.743 26.7236H22.5381L22.2662 27.2721Z" fill="#D0D5D6"/>
<path fill-rule="evenodd" clip-rule="evenodd" d="M19.0366 26.7236L18.7653 27.2721H18.9702L19.2421 26.7236H19.0366Z" fill="#D0D5D6"/>
<path fill-rule="evenodd" clip-rule="evenodd" d="M19.4473 26.7236L19.1757 27.2721H19.382L19.6536 26.7236H19.4473Z" fill="#D0D5D6"/>
<path fill-rule="evenodd" clip-rule="evenodd" d="M18.5159 23.7783C18.4783 23.7783 18.4456 23.8152 18.4456 23.8626C18.4456 23.908 18.4783 23.9452 18.5159 23.9452C18.5552 23.9452 18.5876 23.908 18.5876 23.8626C18.5876 23.8152 18.5552 23.7783 18.5159 23.7783Z" fill="#D0D5D6"/>
<path fill-rule="evenodd" clip-rule="evenodd" d="M18.433 11.1168L18.7559 10.4351L19.3577 10.7516L20.0204 10.1023L20.6841 10.7516L21.2842 10.4351L21.6053 11.1168L22.0038 11.0554C21.9022 11.2461 21.8249 11.4119 21.7532 11.6451C21.3176 11.3928 20.669 11.198 20.0204 11.198C19.37 11.198 18.7235 11.3928 18.2868 11.6451C18.2141 11.4119 18.1382 11.2461 18.0349 11.0554L18.433 11.1168ZM20.0207 11.4151C20.8647 11.4151 21.541 11.6925 21.9142 11.9911C21.9142 11.9911 22.0262 11.3259 22.4039 10.7422L21.7241 10.8181L21.3685 10.0675L20.6841 10.4202L20.0207 9.76709L19.3577 10.4202L18.6715 10.0675L18.3156 10.8181L17.6361 10.7422C18.0149 11.3259 18.1252 11.9911 18.1252 11.9911C18.4983 11.6925 19.1754 11.4151 20.0207 11.4151Z" fill="#D0D5D6"/>
<path fill-rule="evenodd" clip-rule="evenodd" d="M20.7146 10.0718C20.8137 10.0802 20.9009 10.0063 20.9093 9.9084C20.9191 9.81152 20.7747 9.5498 20.7747 9.5498C20.7747 9.5498 20.5586 9.78015 20.5516 9.87912C20.5428 9.976 20.6166 10.0621 20.7146 10.0718Z" fill="#D0D5D6"/>
<path fill-rule="evenodd" clip-rule="evenodd" d="M21.8291 10.4767C21.9176 10.5242 22.0244 10.4883 22.0719 10.4005C22.1193 10.3148 22.0887 10.0161 22.0887 10.0161C22.0887 10.0161 21.8006 10.1451 21.7539 10.2332C21.7089 10.3204 21.7416 10.429 21.8291 10.4767Z" fill="#D0D5D6"/>
<path fill-rule="evenodd" clip-rule="evenodd" d="M19.324 10.0718C19.4245 10.0621 19.4976 9.976 19.4884 9.87912C19.4796 9.78015 19.2657 9.5498 19.2657 9.5498C19.2657 9.5498 19.122 9.81152 19.1311 9.9084C19.1388 10.0063 19.2274 10.0802 19.324 10.0718Z" fill="#D0D5D6"/>
<path fill-rule="evenodd" clip-rule="evenodd" d="M18.2105 10.4767C18.2987 10.429 18.3321 10.3204 18.2847 10.2332C18.2386 10.1451 17.9509 10.0161 17.9509 10.0161C17.9509 10.0161 17.921 10.3148 17.9688 10.4005C18.0148 10.4883 18.123 10.5242 18.2105 10.4767Z" fill="#D0D5D6"/>
<path fill-rule="evenodd" clip-rule="evenodd" d="M30.5415 16.6821C30.615 16.8441 30.7604 17.4069 30.4122 17.8363C30.0163 17.0501 29.4703 16.3772 29.0297 16.0865C28.9327 16.0249 29.0827 15.9144 29.354 15.8788C30.1765 15.7248 31.1399 16.0702 31.5977 16.1907C31.3844 16.35 31.2105 16.4204 30.9934 16.4476C31.3265 16.7243 31.5685 16.9588 31.7414 17.2198C31.4175 17.3 31.2369 17.0968 30.5415 16.6821ZM31.5777 16.5486C31.8155 16.465 31.9989 16.2395 32.0903 16.0325C31.4863 15.9457 29.881 15.2777 28.5624 15.822C29.0564 15.3565 29.4994 15.2965 29.5412 14.6274C29.7468 14.7734 30.0932 14.856 30.2879 14.5072C30.1522 14.1078 29.8079 14.4312 29.7605 14.3215C29.6927 14.1695 30.1937 14.3692 30.3012 13.8514C29.9116 13.7186 29.7953 14.034 29.7257 13.9608C29.6614 13.8907 29.9731 13.7583 29.7433 13.3408C29.3378 13.5757 29.5493 13.8412 29.4639 13.8702C29.3596 13.9116 29.4411 13.5872 28.9935 13.6025C28.9496 14.0796 29.4151 14.0949 29.3378 14.1709C29.2465 14.264 29.1249 13.8963 28.7862 14.0827C28.7922 14.4682 29.1063 14.6794 29.432 14.5887C29.3796 15.3213 28.7022 15.1847 28.1973 16.0095C29.2654 16.5528 29.7485 17.5007 30.4063 18.1548C30.6234 18.0032 30.9948 17.323 30.9948 17.323C31.7063 17.8697 32.2069 17.325 32.2069 17.325C31.9617 17.0766 31.9529 16.8877 31.5777 16.5486Z" fill="#D0D5D6"/>
<path fill-rule="evenodd" clip-rule="evenodd" d="M19.8218 29.5443L19.3594 29.5269L19.306 29.7112L19.364 29.7136C19.383 29.7136 19.383 29.6781 19.3998 29.6586C19.4093 29.6516 19.4929 29.6377 19.5597 29.6446L19.7537 29.6593C19.6391 29.8949 19.3405 30.1172 19.344 30.273C19.3485 30.3562 19.4336 30.3737 19.4842 30.3705C19.5773 30.3677 19.6075 30.3019 19.6317 30.2022C19.6876 29.9698 19.8014 29.7924 19.8829 29.5269L19.8253 29.5293L19.8218 29.5443Z" fill="#D0D5D6"/>
<path fill-rule="evenodd" clip-rule="evenodd" d="M20.1377 29.818L20.1454 29.6766H20.5477L20.5266 29.519C20.4163 29.5222 20.255 29.5581 20.1061 29.5588L20.0787 29.8675C20.2652 29.8592 20.3868 29.9397 20.3868 30.1338C20.3868 30.2056 20.339 30.3408 20.255 30.3509C20.2354 30.3537 20.2101 30.3467 20.1978 30.3373C20.157 30.3073 20.2104 30.2746 20.2104 30.2244C20.2104 30.161 20.144 30.138 20.1004 30.146C20.0309 30.1501 20.0059 30.1941 20.0059 30.2488C20.0059 30.3631 20.1756 30.3941 20.2494 30.3941C20.4138 30.3941 20.605 30.3031 20.605 30.1177C20.605 29.8741 20.3299 29.8229 20.1377 29.818Z" fill="#D0D5D6"/>
<path fill-rule="evenodd" clip-rule="evenodd" d="M21.1018 29.944C20.9588 29.944 20.9384 29.7227 20.9384 29.6157C20.9384 29.5847 20.9669 29.5425 20.9978 29.5425C21.1285 29.5425 21.1647 29.8433 21.1749 29.9283C21.1538 29.9363 21.1285 29.944 21.1018 29.944ZM21.0108 29.5C20.8675 29.5 20.7487 29.607 20.7487 29.7523C20.7487 29.9823 20.9975 30.0576 21.1819 29.9701C21.2048 30.1489 21.1682 30.2771 21.1001 30.2813C21.0414 30.2813 21.0498 30.2381 21.0414 30.2015C21.0263 30.1318 20.9715 30.1133 20.9139 30.1318C20.8541 30.1489 20.845 30.2022 20.8552 30.2412C20.8819 30.3318 20.9947 30.3339 21.0484 30.3273C21.2859 30.3001 21.3847 30.1262 21.3847 29.9325C21.3847 29.708 21.2554 29.5 21.0108 29.5Z" fill="#D0D5D6"/>
<path fill-rule="evenodd" clip-rule="evenodd" d="M19.0338 29.4531C19.0123 29.4789 18.9136 29.6023 18.7 29.7594L18.7176 29.7912C18.7411 29.7783 18.7787 29.7608 18.8433 29.7225L18.7176 30.1578C18.7112 30.1818 18.6817 30.1846 18.6677 30.1818L18.5925 30.1707L18.5784 30.2222L18.9871 30.2947L18.999 30.2442L18.9291 30.2282C18.9083 30.2222 18.8946 30.2079 18.8989 30.1846L19.0847 29.4608L19.0338 29.4531Z" fill="#D0D5D6"/>
<path fill-rule="evenodd" clip-rule="evenodd" d="M22.127 29.9676L21.7648 28.7985C22.5364 28.6406 23.0736 28.4778 23.4836 28.3203V29.0501L24.1199 29.3045C23.5823 29.547 22.9155 29.7885 22.127 29.9676ZM20.0207 30.6506C19.3001 30.6506 18.5984 30.544 17.9969 30.3976L18.3795 29.1727C18.6332 29.2306 19.2667 29.3079 20.0207 29.3079C20.7747 29.3079 21.4061 29.2306 21.6615 29.1727L22.0445 30.3976C21.4412 30.544 20.7382 30.6506 20.0207 30.6506ZM15.9183 29.3045L16.5564 29.0501V28.3203C16.966 28.4778 17.504 28.6406 18.2752 28.7985L17.914 29.9676C17.127 29.7885 16.4583 29.547 15.9183 29.3045ZM23.6807 28.8978V28.0039C22.9836 28.3203 22.0975 28.5775 20.957 28.6796L20.905 28.9988C21.0024 29.0121 21.1243 29.0243 21.2891 29.0344C20.8653 29.0922 20.3204 29.1205 20.0207 29.1205C19.7206 29.1205 19.1757 29.0922 18.7523 29.0344C18.9157 29.0243 19.0376 29.0121 19.1349 28.9988L19.0833 28.6796C17.9424 28.5775 17.0546 28.3203 16.3593 28.0039V28.8978L15.4141 29.2828C16.114 29.6442 16.92 29.9387 17.8504 30.1767L17.7408 30.5513C18.2745 30.7057 19.1265 30.8636 20.0207 30.8636C20.9138 30.8636 21.7662 30.7057 22.2992 30.5513L22.1889 30.1767C23.1196 29.9387 23.9267 29.6442 24.6262 29.2828L23.6807 28.8978Z" fill="#D0D5D6"/>
<path fill-rule="evenodd" clip-rule="evenodd" d="M8.2982 17.2198C8.47071 16.9588 8.71139 16.7243 9.04693 16.4483C8.82768 16.4204 8.65552 16.35 8.44085 16.1907C8.89971 16.0702 9.86522 15.7248 10.6863 15.8788C10.9565 15.9144 11.109 16.0249 11.0103 16.0865C10.5683 16.3772 10.023 17.0501 9.62595 17.8356C9.27952 17.4069 9.42498 16.8441 9.49841 16.6821C8.80414 17.0968 8.62285 17.3 8.2982 17.2198ZM9.04482 17.323C9.04482 17.323 9.4162 18.0032 9.63298 18.1548C10.2907 17.5007 10.7745 16.5528 11.8423 16.0095C11.337 15.1847 10.6586 15.3227 10.6094 14.5891C10.9326 14.6794 11.2478 14.4671 11.2541 14.0827C10.9144 13.8984 10.7935 14.265 10.7018 14.1709C10.6259 14.0939 11.0911 14.0796 11.0465 13.6029C10.5978 13.5893 10.6811 13.9116 10.5753 13.8702C10.4913 13.8402 10.7018 13.5754 10.2949 13.3408C10.0665 13.7604 10.3789 13.8904 10.3143 13.9608C10.2454 14.034 10.1277 13.7186 9.73944 13.8514C9.84414 14.3692 10.3469 14.1695 10.2788 14.3215C10.2317 14.4312 9.88771 14.1085 9.75279 14.5079C9.94603 14.856 10.2932 14.7734 10.4973 14.6278C10.5398 15.2993 10.9829 15.3544 11.4783 15.822C10.1593 15.2777 8.55363 15.945 7.9479 16.0332C8.04031 16.2395 8.22406 16.465 8.46087 16.5469C8.08739 16.8891 8.0786 17.0773 7.83301 17.3247C7.83301 17.3247 8.33298 17.8697 9.04482 17.323Z" fill="#D0D5D6"/>
<path fill-rule="evenodd" clip-rule="evenodd" d="M19.4413 16.8247V17.2185C19.5791 17.0551 19.8429 17.0871 19.8429 17.0871V17.6538C19.8429 17.6538 19.8342 17.9332 19.7347 18.0542H20.3071C20.2073 17.9332 20.1978 17.6538 20.1978 17.6538V17.0871C20.1978 17.0871 20.4617 17.0551 20.5987 17.2185V16.8247H19.4413Z" fill="#D0D5D6"/>
<path fill-rule="evenodd" clip-rule="evenodd" d="M32.5492 16.9941C32.48 16.9234 32.4382 16.8589 32.3805 16.7697C32.351 16.7237 32.3183 16.6752 32.2818 16.6223C32.3812 16.5073 32.4663 16.3748 32.5302 16.2295L32.786 15.6517L32.1567 15.5622C32.0503 15.5465 31.8792 15.5019 31.6796 15.45C31.2935 15.3496 30.7988 15.2207 30.2584 15.1646C30.4428 15.0841 30.5992 14.9398 30.7085 14.7443L30.8118 14.5592C30.8118 14.5592 30.7847 14.3 30.6828 14.2184C30.7218 14.1386 30.7513 14.0497 30.7717 13.9532L30.8571 13.5396L30.4548 13.403C30.3926 13.3814 30.3297 13.366 30.2679 13.3559C30.2454 13.2799 30.2116 13.2001 30.1656 13.1158L29.9267 12.6816L29.4959 12.9318C29.3888 12.9945 29.2985 13.0653 29.2251 13.1454C29.1608 13.1336 29.0919 13.1273 29.0195 13.1273C29.0195 13.1273 28.7743 13.1005 28.502 13.1977L28.1545 12.8409L27.7438 12.4052C27.3597 11.9972 26.839 11.8766 26.3074 12.0773C26.1047 11.8766 25.7885 11.7104 25.298 11.7104C25.1318 11.7104 24.9864 11.7299 24.8996 11.7414C24.8996 11.7414 24.2239 11.8634 23.8445 12.2212L23.3835 12.0038C23.0746 12.4857 22.5466 12.6391 22.5466 12.6391C22.5107 12.4983 22.4485 12.3662 22.3607 12.246L22.3909 12.0759C22.3909 12.0707 22.4946 11.4954 22.8108 11.0078L23.3603 10.1593L22.5817 10.246C22.5835 10.1694 22.5803 10.0791 22.5691 9.97143L22.4995 9.31105L21.8892 9.58426C21.8214 9.61458 21.7648 9.64385 21.7125 9.67208L21.5919 9.41734L21.3123 9.56126C21.2845 9.49261 21.2483 9.41525 21.1991 9.32604L20.8769 8.74058L20.4195 9.22951C20.3728 9.28004 20.3334 9.32604 20.2986 9.37064L20.0211 9.09708L19.7421 9.37204C19.7073 9.32743 19.6686 9.28143 19.6219 9.23125L19.1638 8.73779L18.8405 9.32673C18.7913 9.41629 18.7558 9.49261 18.7277 9.56126L18.4491 9.41769L18.3279 9.67208C18.2752 9.64385 18.2179 9.61458 18.1508 9.58357L17.5381 9.3107L17.4706 9.97317C17.4594 10.0802 17.4565 10.1697 17.4583 10.246L16.6783 10.1593L17.2296 11.0082C17.5472 11.4954 17.648 12.07 17.6487 12.0745L17.6772 12.2446C17.5886 12.3662 17.5272 12.4983 17.4913 12.6391C17.4913 12.6391 16.9928 12.4272 16.659 12.0031L16.1885 12.2254C15.652 11.8661 15.3196 11.7264 14.7413 11.7104C14.2505 11.6968 13.9342 11.8766 13.7322 12.077C13.1999 11.8773 12.6806 11.9982 12.2976 12.4052C12.2976 12.4052 12.0457 12.6767 11.8862 12.8409C11.7267 13.0057 11.492 13.1416 11.492 13.1416C11.492 13.1416 11.1582 13.067 10.8149 13.1458C10.7415 13.066 10.6502 12.9945 10.5412 12.9311L10.1094 12.6816L9.87227 13.1182C9.82659 13.2015 9.79392 13.2806 9.77143 13.3559C9.70994 13.366 9.64705 13.3814 9.58451 13.403L9.18538 13.5396L9.26865 13.9508C9.28867 14.0497 9.31784 14.1386 9.35789 14.2191C9.3347 14.2627 9.31432 14.3097 9.29711 14.3592L9.2293 14.5589L9.33224 14.7439C9.44081 14.9394 9.59681 15.0841 9.78162 15.1646C9.24089 15.2207 8.74619 15.3496 8.359 15.4503C8.16049 15.5022 7.98832 15.5468 7.88222 15.5625L7.25013 15.6531L7.39384 15.9755L7.50873 16.2323C7.57408 16.3762 7.65911 16.5087 7.75889 16.623C7.72165 16.6752 7.56178 16.9227 7.49151 16.9934L7.17249 17.3164L7.47922 17.6517C7.51716 17.6928 7.86078 18.05 8.41697 18.0507C8.5684 18.0507 8.71984 18.0242 8.86916 17.9719C9.01743 18.2019 9.19276 18.4347 9.35403 18.5494C9.05854 18.8937 8.72194 19.1923 8.2434 19.4185L7.84322 19.6077L8.01467 20.0611C8.12711 20.3343 8.34459 20.6354 8.76657 20.7501C8.67627 21.0174 8.63235 21.2717 8.5944 21.4972C8.50411 22.0346 8.46616 22.2566 7.98938 22.4228L7.56108 22.5712L7.6837 23.0041C7.78278 23.3571 7.93035 23.5906 8.09127 23.7439L7.80703 24.0544C7.80703 24.0544 8.48232 24.5562 9.14392 24.6172C9.1534 24.6186 9.71803 24.6541 9.97135 24.3339C10.0729 24.697 10.2335 25.0319 10.3786 25.3358C10.6776 25.9596 10.8367 26.3293 10.6365 26.6659L10.1846 27.4263L11.0739 27.3897C11.4618 27.3734 11.8226 27.3504 12.1343 27.2737C12.1343 27.2908 12.1336 27.3065 12.1315 27.3221L12.0587 27.9752L12.838 27.8125C12.9206 27.7881 12.9965 27.7564 13.0671 27.7184C13.5499 28.2777 14.3689 28.7147 15.4735 28.7147H15.5378L14.2684 29.2318L15.1924 29.7093C15.8013 30.0236 16.478 30.2871 17.2492 30.5101L17.1417 30.8767L17.6059 31.0116C17.8739 31.0896 18.8419 31.344 20.0207 31.344C21.1995 31.344 22.1668 31.0893 22.4352 31.0116L22.8983 30.8767L22.7908 30.5104C23.5634 30.2871 24.2401 30.0236 24.849 29.7093L25.7737 29.2318L24.5029 28.7147H24.5672C25.6708 28.7147 26.4901 28.2777 26.9725 27.7184C27.0425 27.7553 27.1194 27.7881 27.2013 27.8125L27.9799 27.9752L27.9085 27.3228C27.9071 27.3072 27.9061 27.2911 27.9061 27.274C28.2174 27.3504 28.5786 27.3734 28.9665 27.3897L29.8543 27.4263L29.4039 26.6666C29.2033 26.3293 29.3628 25.9599 29.6614 25.3361C29.8069 25.0326 29.9671 24.6974 30.0686 24.3339C30.2405 24.4635 30.4239 24.5409 30.6076 24.5813C30.6076 24.5813 30.7503 24.6238 30.8866 24.6273C31.2801 24.6388 31.4755 24.5287 31.746 24.3597L32.2361 24.0537L31.9491 23.7429C32.11 23.5895 32.2572 23.3564 32.357 23.0055L32.4807 22.5712L32.0513 22.4228C31.5742 22.2566 31.5369 22.0346 31.4456 21.4976C31.4073 21.2717 31.3648 21.0174 31.2738 20.7501C31.6954 20.6347 31.9129 20.334 32.025 20.0611L32.1961 19.607L31.7962 19.4185C31.3174 19.1923 30.9808 18.8937 30.6853 18.5494C30.8472 18.4344 31.0226 18.2016 31.1715 17.9719C31.3202 18.0242 31.4705 18.05 31.6234 18.0507C32.1792 18.0507 32.5239 17.6932 32.5611 17.6524L32.8679 17.3175L32.5492 16.9941Z" fill="#FFFFFE"/>
<path fill-rule="evenodd" clip-rule="evenodd" d="M20.0207 27.8703C19.6216 27.4765 19.337 27.4333 18.2615 27.4333C16.9769 27.4333 16.1038 26.6861 16.1038 25.4915V23.1006H23.9369V25.4915C23.9369 26.6861 23.0652 27.4333 21.7778 27.4333C20.702 27.4333 20.4177 27.4765 20.0207 27.8703ZM16.1038 22.8862V19.239C16.1038 18.8992 16.0051 18.5601 15.8864 18.2476H18.7393C19.0014 18.6041 19.4765 18.8431 20.0207 18.8431C20.5632 18.8431 21.0382 18.6041 21.3007 18.2476H24.1544C24.0331 18.5601 23.9358 18.8992 23.9358 19.239V22.8862H16.1038Z" fill="#FFE52B"/>
<path fill-rule="evenodd" clip-rule="evenodd" d="M16.5575 28.3218V29.0505L15.9201 29.3049C16.4594 29.5474 17.1277 29.7889 17.9144 29.9677L18.2763 28.7996C17.5043 28.6413 16.9668 28.4782 16.5575 28.3218Z" fill="#FFFFFE"/>
<path fill-rule="evenodd" clip-rule="evenodd" d="M20.0207 29.3079C19.2671 29.3079 18.6332 29.2306 18.3799 29.1724L17.998 30.3976C18.5984 30.544 19.3008 30.6506 20.0207 30.6506C20.7382 30.6506 21.4409 30.544 22.0441 30.3976L21.6605 29.1724C21.4061 29.2306 20.7747 29.3079 20.0207 29.3079Z" fill="#FFFFFE"/>
<path fill-rule="evenodd" clip-rule="evenodd" d="M23.4826 28.3218C23.0732 28.4782 22.5364 28.6413 21.7645 28.7996L22.1271 29.9677C22.9144 29.7889 23.5817 29.5474 24.1196 29.3049L23.4826 29.0505V28.3218Z" fill="#FFFFFE"/>
<path fill-rule="evenodd" clip-rule="evenodd" d="M14.0295 16.6719C13.1553 17.5986 13.5337 18.153 13.7104 18.3241C13.3847 18.2544 12.8992 17.8432 13.0095 17.4449C12.9062 17.5683 12.8004 17.7017 12.6908 17.8397C12.474 18.1262 12.2797 18.4078 12.1076 18.6806C11.8427 19.4619 12.3289 20.2694 13.1553 20.6273C12.2358 20.4934 11.8237 19.6825 11.8265 19.1664C11.3873 19.9888 11.1782 20.7395 11.1972 21.3699C11.2053 21.6041 11.226 21.8236 11.257 22.0296C11.4681 22.4272 11.8068 22.5728 12.4104 22.645C11.8613 22.6795 11.5714 22.6544 11.3321 22.4063C11.7063 23.9999 13.4532 25.3795 14.1651 26.5613C13.4532 25.6426 11.9786 24.2759 11.4618 23.2862C11.4221 23.6437 11.518 24.5596 11.967 25.1231C11.3065 24.4791 11.2552 23.5026 11.2977 22.9311C11.1305 22.5199 11.0247 22.0606 11.0103 21.5378C10.9966 21.0569 11.031 20.6405 11.1048 20.2652C10.6874 20.8534 10.0852 21.0803 9.7883 21.9759C9.84557 20.8203 10.7159 20.8025 11.3659 19.4009C11.6181 18.7873 11.9842 18.2583 12.3901 17.6571C11.8746 17.8244 11.4892 17.9436 10.894 18.5914C11.3167 17.5986 13.7621 16.4831 14.8822 15.4031C14.5467 15.4735 13.1729 15.508 12.603 15.1303C13.636 15.4083 15.9345 15.0909 16.8027 14.5019C16.2029 15.3571 14.8987 15.4056 13.311 17.1062C13.5154 16.9483 13.7849 16.7863 14.0295 16.6719ZM15.2227 16.5733C16.2212 16.0388 18.661 14.8623 17.0072 13.5931C16.7812 13.4209 16.5335 13.2662 16.3248 13.0728C16.0666 13.2707 16.4218 13.7607 16.5104 13.9398C16.5104 13.9398 15.9601 13.9952 15.8277 13.9952C14.9774 13.9914 14.085 13.492 14.5368 12.5337C14.1981 12.6034 14.1563 12.9257 14.053 13.2024C13.8359 13.0568 13.4589 12.7438 13.168 12.7881C13.4048 13.538 14.3991 14.213 15.1703 14.3664C14.3896 14.7877 12.9441 15.101 12.1831 14.1942C11.6487 15.2188 12.3932 15.6474 13.1219 16.1841C10.3455 17.4404 10.7552 18.8503 8.93382 19.9596C9.17028 20.0697 10.2236 19.8487 10.3174 19.8355C9.92182 20.3443 9.73736 20.5589 9.62176 20.806C9.51144 21.0385 9.4612 21.3002 9.35193 21.8647C9.26584 22.3108 9.10914 22.7551 8.56244 23.0503C8.77676 23.435 9.2532 23.1346 9.45206 23.083C9.42501 23.1234 9.35825 23.5876 9.17941 23.8107C10.1147 23.7507 9.68149 21.7947 10.6178 22.2655C10.8817 22.3976 10.9611 22.7053 10.8392 22.9576C10.2247 24.2149 11.6217 25.3234 11.5454 26.4257C11.8887 26.4229 12.2442 26.4142 12.4691 25.9538C12.5858 26.1831 12.7674 26.5058 12.8679 26.817L13.1483 26.3448C13.3204 27.1261 14.0558 27.8493 15.0491 27.9137C14.5751 27.1704 15.1429 26.1542 13.9919 25.0746C14.1352 24.9603 14.4665 24.7383 14.5853 24.5878C13.1722 24.7523 11.6979 23.6437 12.3672 23.1175C12.805 22.7739 12.9961 23.4873 13.6718 23.3674L13.4079 23.1409C13.5007 23.0503 13.6064 22.9311 13.7164 22.8426C13.4297 22.8081 13.1156 22.6258 13.1156 22.6258L13.2867 22.3453C11.6318 22.3435 11.5897 21.0876 12.2618 21.0374C12.578 21.0144 12.9863 21.5919 14.0052 21.4716C13.8749 21.3159 13.8229 21.0813 13.7614 20.9067C14.0077 20.8844 14.2968 20.8865 14.5291 20.7743C14.0316 20.7105 13.9054 20.5454 13.4919 20.2338L13.9732 20.0592C13.2751 19.7142 13.318 19.112 13.2962 18.4851C13.6609 18.6935 14.0906 19.0162 14.5484 18.866C14.6573 18.8294 14.7272 18.7799 14.7297 18.667C14.0751 18.4119 13.6563 17.4128 15.2227 16.5733Z" fill="#FFFFFE"/>
<path fill-rule="evenodd" clip-rule="evenodd" d="M28.9352 20.2649C29.0086 20.6402 29.0455 21.057 29.0297 21.5376C29.0143 22.0603 28.9092 22.5196 28.7423 22.9308C28.7848 23.5023 28.7335 24.4788 28.0737 25.1228C28.521 24.5589 28.6179 23.6435 28.5786 23.2859C28.0596 24.2756 26.5868 25.6424 25.8739 26.561C26.5868 25.3793 28.334 23.9989 28.7089 22.406C28.4679 22.6541 28.1798 22.6792 27.6303 22.6454C28.2332 22.5726 28.5712 22.4269 28.7827 22.0293C28.814 21.8233 28.8347 21.6038 28.8428 21.3692C28.8628 20.7392 28.6524 19.9885 28.2132 19.1661C28.2174 19.6822 27.8049 20.4932 26.8847 20.6273C27.7101 20.2691 28.197 19.4616 27.9321 18.6803C27.7606 18.4075 27.5678 18.1259 27.3492 17.8394C27.2406 17.7014 27.1345 17.5683 27.0302 17.4446C27.1405 17.8429 26.6549 18.2541 26.3292 18.3238C26.5067 18.1527 26.8837 17.5983 26.0106 16.6717C26.2555 16.786 26.5256 16.948 26.7291 17.1059C25.1413 15.4053 23.8385 15.3572 23.2363 14.5017C24.1062 15.0906 26.4048 15.4084 27.4367 15.13C26.8672 15.5077 25.493 15.4732 25.1568 15.4028C26.2765 16.4828 28.724 17.5983 29.1464 18.5904C28.5512 17.9433 28.164 17.8241 27.651 17.6572C28.0568 18.2583 28.4219 18.787 28.6731 19.4C29.3252 20.8023 30.1955 20.8197 30.2524 21.976C29.9552 21.0797 29.353 20.8531 28.9352 20.2649ZM30.6874 21.8644C30.5781 21.2995 30.5289 21.0382 30.4186 20.8064C30.3044 20.5587 30.1193 20.344 29.7215 19.8352C29.8157 19.8485 30.8712 20.0694 31.1066 19.9593C29.2852 18.85 29.6952 17.4401 26.9178 16.1838C27.6475 15.6471 28.3906 15.2188 27.8576 14.1936C27.0966 15.1007 25.6501 14.7874 24.8704 14.3661C25.643 14.2128 26.636 13.5381 26.8724 12.7878C26.5801 12.7435 26.2035 13.0565 25.9867 13.2018C25.883 12.9255 25.843 12.6024 25.5043 12.5327C25.9565 13.4917 25.0633 13.9911 24.2102 13.995C24.0802 13.995 23.53 13.9395 23.53 13.9395C23.6182 13.7604 23.9731 13.2705 23.7138 13.0725C23.5054 13.2659 23.2591 13.4207 23.0329 13.5928C21.378 14.862 23.8202 16.0392 24.8181 16.573C26.3816 17.4125 25.9652 18.411 25.311 18.6667C25.3128 18.7797 25.3838 18.8291 25.4927 18.8657C25.948 19.0159 26.3795 18.6932 26.7431 18.4848C26.722 19.1114 26.7656 19.7139 26.0678 20.0589L26.5478 20.2335C26.1335 20.5451 26.0088 20.7103 25.5113 20.774C25.7421 20.8862 26.0341 20.8842 26.2793 20.9072C26.2161 21.0804 26.1627 21.3156 26.0345 21.4714C27.0541 21.5916 27.4638 21.0141 27.7782 21.0371C28.4482 21.0873 28.4089 22.3433 26.7526 22.345L26.9244 22.6259C26.9244 22.6259 26.6114 22.8078 26.3233 22.8423C26.4329 22.9308 26.5404 23.0496 26.6325 23.1406L26.3682 23.3671C27.0425 23.487 27.2357 22.7736 27.6728 23.1172C28.3421 23.6435 26.8682 24.752 25.454 24.5875C25.5735 24.7377 25.9045 24.96 26.0489 25.075C24.8968 26.1539 25.4625 27.1701 24.9913 27.9145C25.9825 27.849 26.7178 27.1259 26.8925 26.3446L27.1721 26.8168C27.2723 26.5056 27.4557 26.1829 27.5702 25.9536C27.794 26.4139 28.1521 26.423 28.4964 26.4254C28.4187 25.3232 29.8146 24.2146 29.2019 22.9573C29.0796 22.7057 29.1583 22.3973 29.4222 22.2652C30.3596 21.7944 29.9246 23.7504 30.861 23.8104C30.6818 23.5874 30.6147 23.1232 30.5897 23.0827C30.7875 23.1343 31.2629 23.4354 31.4772 23.0496C30.9316 22.7548 30.7745 22.3098 30.6874 21.8644Z" fill="#FFFFFE"/>
<path fill-rule="evenodd" clip-rule="evenodd" d="M21.3003 18.2476C21.0382 18.6041 20.5628 18.8431 20.0207 18.8431C19.8946 18.8431 19.7723 18.8292 19.6571 18.8069C19.689 18.9539 19.7656 19.1052 19.9237 19.2366C19.8594 19.6628 20.0453 20.0621 20.5066 20.167C20.5562 20.3841 20.6914 20.5486 20.9198 20.6263L20.5987 20.995C20.4747 21.1361 20.313 21.1811 20.1827 21.1651L18.7457 21.0027C18.8078 20.8445 18.642 20.6615 18.187 20.7403L18.7509 19.1735L18.4073 18.4465L17.7552 18.9996L17.7071 20.6427L17.4263 20.5068C17.0648 20.351 16.958 21.0051 17.3027 21.0079L17.4414 21.0093C17.432 21.0762 17.4537 21.1508 17.5075 21.1748C17.4425 21.2006 17.4228 21.3222 17.5043 21.3651C17.4221 21.4041 17.4105 21.5285 17.4769 21.5822C17.406 21.7035 17.3926 21.9645 17.6438 22.0307C17.8511 22.0847 17.9811 21.8645 18.0233 21.7362L20.2593 22.4231C20.5734 22.5134 20.8007 22.4628 21.0632 22.2342L21.6468 21.7282C21.5733 22.0589 21.6931 22.3572 21.9468 22.4559C21.9468 22.4559 21.9064 22.759 21.9222 22.8848L22.704 22.8862H23.9358V19.2397C23.9358 18.8996 24.0331 18.5601 24.1544 18.2476H21.3003Z" fill="#FFFFFE"/>
<path fill-rule="evenodd" clip-rule="evenodd" d="M17.952 24.3839L17.9955 24.4383C18.0563 24.5122 18.0914 24.4948 18.161 24.455L18.2626 24.4017C18.3262 24.3543 18.7422 24.5111 18.7657 24.1686C18.8117 24.4247 18.5046 24.9635 18.6894 25.2646L18.9386 25.6705L18.1234 25.682C18.0338 25.682 17.9874 25.7354 17.9629 25.7841L17.7496 26.2229C17.6944 26.3382 17.6983 26.4588 17.7682 26.539L17.9126 26.7C17.9126 26.7 18.0307 26.5999 18.0686 26.4703L18.0047 26.4051C17.952 26.3543 17.952 26.3076 17.9811 26.2445L18.1122 25.9741C18.1635 25.8678 18.2144 25.8451 18.3304 25.872L18.9895 26.0131C19.038 26.0246 19.116 26.0479 19.1627 25.9681C19.2428 25.826 19.3862 25.8166 19.5309 25.8382C19.8928 25.8922 20.728 25.9783 21.0263 25.6333C21.3759 26.0936 22.0596 26.0936 22.0143 26.3348L21.8702 27.1262H22.0877L22.2198 26.317C22.2349 26.2229 22.2933 26.0933 22.1907 26.0208C22.1489 25.9884 22.1295 25.9723 22.0343 25.8099C21.9103 25.5942 21.9166 25.2712 21.7964 24.9934C21.9103 24.8603 22.0329 24.8154 22.1408 24.8398C22.3814 24.8983 22.4468 25.3102 22.789 25.6468C22.75 25.4973 22.7339 25.3332 22.6527 25.191C22.6527 25.191 22.8902 25.3736 22.9513 25.5876C22.9903 25.7218 23.03 25.8193 23.1516 25.8817C23.2324 25.9106 23.3283 25.872 23.425 25.7573C23.425 25.7573 23.199 25.4391 23.0339 25.2311C22.8076 24.945 22.5048 24.6585 22.0919 24.6916C21.9619 24.7024 21.8365 24.761 21.717 24.8314C21.2487 24.5711 20.8847 24.8467 20.7396 24.8467L19.8623 24.7944C19.689 24.784 19.5534 24.5854 19.5534 24.5854C19.5309 23.849 18.9347 23.5552 18.7288 23.5552C18.7288 23.5552 18.7481 23.4225 18.694 23.3765L18.5103 23.6047L18.0015 23.4207L18.4003 23.7445L17.9678 24.2435C17.9232 24.2926 17.9302 24.3571 17.952 24.3839Z" fill="#FFFFFE"/>
<path fill-rule="evenodd" clip-rule="evenodd" d="M17.3757 25.418C17.2535 25.5125 17.2587 25.6438 17.3329 25.7905L17.4063 25.9268L17.5981 25.7818L17.5549 25.6884C17.5237 25.6229 17.5247 25.556 17.5788 25.5139L17.8536 25.3082C17.9305 25.2525 17.9548 25.2466 18.0373 25.2584L18.6174 25.3793C18.6174 25.3793 18.5296 25.2525 18.5001 25.1232L17.9537 25.0521C17.8764 25.042 17.83 25.0751 17.7622 25.1256L17.3757 25.418Z" fill="#FFFFFE"/>
<path fill-rule="evenodd" clip-rule="evenodd" d="M21.085 27.1261H21.3039L21.6556 26.266C21.6682 26.2368 21.6847 26.2228 21.6981 26.1984C21.54 26.1368 21.4479 26.0925 21.3162 26.0176C21.404 26.135 21.4732 26.1855 21.4367 26.2936L21.085 27.1261Z" fill="#FFFFFE"/>
<path fill-rule="evenodd" clip-rule="evenodd" d="M20.3991 15.0908L21.2213 14.7783C21.2213 14.7783 21.2213 14.8779 20.9845 15.0375C20.7733 15.1825 20.3991 15.3369 20.3991 15.3369V15.0908ZM20.3991 14.4949L21.333 14.1639C21.333 14.1639 21.2213 14.2813 20.9845 14.4427C20.7733 14.5862 20.3991 14.741 20.3991 14.741V14.4949ZM20.3991 13.9346L21.4209 13.561C21.4209 13.561 21.2213 13.7217 20.9845 13.8827C20.7733 14.0273 20.3991 14.1817 20.3991 14.1817V13.9346ZM21.2712 15.4965L21.6766 13.1812L20.1384 13.6993V16.0875L21.2712 15.4965Z" fill="#FFFFFE"/>
<path fill-rule="evenodd" clip-rule="evenodd" d="M18.5331 17.545L18.5671 17.5984H18.8841L18.8872 17.6531C18.8914 17.7057 18.903 17.7601 18.9206 17.8148C18.9698 17.9646 19.0671 18.1211 19.2245 18.2476C19.4062 18.3929 19.6693 18.4985 20.0193 18.4985C20.7771 18.4985 21.1197 18.012 21.1527 17.6531L21.1545 17.5984H21.4728L21.5066 17.545C21.8056 17.0809 22.1706 16.5654 22.5954 16.4923L21.4384 15.8267L20.0196 16.5919L18.6002 15.8267L17.4446 16.4923C17.8673 16.5654 18.2323 17.0809 18.5331 17.545Z" fill="#FFFFFE"/>
<path fill-rule="evenodd" clip-rule="evenodd" d="M19.6409 14.4951V14.7412C19.6409 14.7412 19.267 14.5871 19.0566 14.4429C18.8177 14.2812 18.707 14.1641 18.707 14.1641L19.6409 14.4951ZM19.6409 13.9348V14.1819C19.6409 14.1819 19.267 14.0275 19.0566 13.8829C18.8177 13.7212 18.6178 13.5612 18.6178 13.5612L19.6409 13.9348ZM19.6409 15.3378C19.6409 15.3378 19.267 15.1827 19.0566 15.0384C18.8177 14.8785 18.8177 14.7785 18.8177 14.7785L19.6409 15.0911V15.3378ZM19.8998 16.0877V13.6996L18.3627 13.1807L18.7671 15.4967L19.8998 16.0877Z" fill="#FFFFFE"/>
<path fill-rule="evenodd" clip-rule="evenodd" d="M20.0203 12.1597C19.1409 12.1597 18.4818 12.4454 18.3391 12.7803L20.0203 13.439L21.7001 12.7803C21.5571 12.4454 20.8991 12.1597 20.0203 12.1597Z" fill="#FFFFFE"/>
<path fill-rule="evenodd" clip-rule="evenodd" d="M20.0207 11.2035C20.6686 11.2035 21.3168 11.3983 21.7532 11.6507C21.8242 11.4182 21.9008 11.252 22.0037 11.0614L21.6053 11.1223L21.2842 10.4407L20.683 10.7575L20.0207 10.1079L19.3577 10.7575L18.7569 10.4407L18.4329 11.1223L18.0352 11.0614C18.1392 11.252 18.2144 11.4182 18.2871 11.6507C18.7246 11.3983 19.3704 11.2035 20.0207 11.2035Z" fill="#FFFFFE"/>
<path fill-rule="evenodd" clip-rule="evenodd" d="M30.9899 16.452C31.2074 16.4245 31.382 16.353 31.5946 16.1948C31.1361 16.0739 30.1737 15.7289 29.3523 15.8833C29.0803 15.9188 28.9303 16.0283 29.0269 16.0903C29.4682 16.3806 30.0135 17.0535 30.4095 17.8393C30.7577 17.4107 30.6115 16.8472 30.5388 16.6859C31.2334 17.1009 31.415 17.303 31.7376 17.2239C31.5661 16.9625 31.3233 16.7277 30.9899 16.452Z" fill="#FFFFFE"/>
<path fill-rule="evenodd" clip-rule="evenodd" d="M9.62948 17.8393C10.0262 17.0535 10.5715 16.3806 11.0135 16.0903C11.1118 16.0283 10.9597 15.9188 10.6899 15.8833C9.86735 15.7289 8.90324 16.0739 8.44438 16.1948C8.6594 16.353 8.83156 16.4245 9.05046 16.452C8.71597 16.728 8.47389 16.9625 8.30243 17.2239C8.62638 17.303 8.80732 17.1009 9.50124 16.6852C9.42921 16.8475 9.2827 17.4107 9.62948 17.8393Z" fill="#FFFFFE"/>
<path fill-rule="evenodd" clip-rule="evenodd" d="M13.1483 26.3444L12.8679 26.8166C12.7674 26.5054 12.5857 26.1827 12.4691 25.9534C12.2442 26.4138 11.8887 26.4228 11.5454 26.4253C11.6216 25.323 10.2247 24.2145 10.8392 22.9571C10.9614 22.7055 10.8817 22.3971 10.6178 22.265C9.68147 21.7942 10.1147 23.7503 9.17939 23.8102C9.35823 23.5872 9.42499 23.123 9.45204 23.0826C9.25318 23.1342 8.77674 23.4353 8.56242 23.0498C9.10912 22.7547 9.26583 22.3103 9.35226 21.8643C9.46118 21.2997 9.51142 21.038 9.62174 20.8063C9.73734 20.5585 9.9218 20.3439 10.3174 19.8351C10.2236 19.8483 9.17026 20.0692 8.93345 19.9591C10.7552 18.8499 10.3452 17.4399 13.1219 16.1836C12.3936 15.647 11.6494 15.2187 12.1831 14.1938C12.9441 15.1005 14.3896 14.7873 15.1703 14.3659C14.3991 14.2126 13.4047 13.5379 13.1686 12.7877C13.4589 12.7434 13.8359 13.0563 14.0526 13.202C14.157 12.9246 14.1981 12.603 14.5368 12.5333C14.085 13.4916 14.9774 13.991 15.8277 13.9948C15.9601 13.9948 16.5103 13.9394 16.5103 13.9394C16.4218 13.7603 16.0666 13.2703 16.3248 13.0724C16.5335 13.2658 16.7812 13.4205 17.0071 13.5927C18.661 14.8618 16.2205 16.039 15.2223 16.5729C13.6563 17.4124 14.0751 18.4115 14.7297 18.6666C14.7272 18.7795 14.6573 18.829 14.5484 18.8656C14.0906 19.0158 13.6609 18.6924 13.2962 18.4847C13.318 19.1116 13.2747 19.7138 13.9732 20.0588L13.4919 20.2327C13.9054 20.5449 14.0316 20.7101 14.5291 20.7739C14.2968 20.8861 14.008 20.884 13.7614 20.907C13.8236 21.0809 13.8749 21.3154 14.0052 21.4712C12.9863 21.5914 12.578 21.014 12.2618 21.037C11.5897 21.0872 11.6318 22.3431 13.2867 22.3449L13.1152 22.6257C13.1152 22.6257 13.4286 22.8076 13.7164 22.8421C13.6064 22.9303 13.5007 23.0498 13.4079 23.1404L13.6721 23.367C12.9961 23.4868 12.805 22.7735 12.3672 23.1171C11.6979 23.6433 13.1721 24.7518 14.5853 24.5873C14.4665 24.7379 14.1352 24.9599 13.9919 25.0749C15.1429 26.1538 14.5751 27.17 15.0487 27.9143C14.0558 27.8485 13.3208 27.1257 13.1483 26.3444ZM14.443 25.1303C14.7631 24.8787 15.0276 24.7532 15.0143 24.1448C14.5343 24.388 13.1732 24.3751 12.6047 23.5987C12.4438 23.3774 12.6156 23.2666 12.7706 23.4405C13.1599 23.8782 13.8815 23.6802 14.1443 23.5537C14.1025 23.4029 13.9859 23.2067 13.8875 23.123C13.9859 23.0268 14.2645 22.884 14.3211 22.6379C14.1721 22.5578 13.5948 22.5003 13.5948 22.5003C13.6876 22.4114 13.8032 22.288 13.734 21.9601C13.144 22.1399 12.4153 21.8957 12.2495 21.6792C12.0865 21.4663 12.2527 21.2666 12.39 21.4078C12.6834 21.7137 14.1327 22.0647 14.6717 21.5318C14.4718 21.4771 14.2504 21.2997 14.2111 21.1896C14.7097 21.1401 15.1074 20.8481 15.1404 20.4843C14.8646 20.4843 14.3432 20.4644 14.1658 20.332C14.405 20.2442 14.5561 20.1585 14.6317 19.8926C13.7196 19.8379 13.6472 19.166 13.6423 19.0545C14.236 19.3946 15.2824 19.243 15.0122 18.4063C14.5175 18.3801 14.0196 17.5873 15.379 16.8587C16.6147 16.1948 18.0197 15.4797 17.8954 14.3025C17.8146 13.5484 16.5637 13.0347 16.4053 12.6535C15.8828 12.8999 15.7781 13.186 16.0139 13.6655C16.0139 13.6655 14.8506 13.7798 14.7589 13.0703C14.7188 12.7518 14.9331 12.4538 15.1636 12.2266C15.0329 12.2266 14.157 11.9938 13.8924 12.7016C13.4012 12.3691 12.9817 12.3817 12.6507 12.7326C13.1781 13.0431 13.5052 14.1098 14.378 14.4245C13.7572 14.7583 12.753 14.6186 12.1673 13.5927C11.6125 14.421 11.2935 15.2417 12.4824 16.1174C10.3181 17.0946 10.3339 18.9614 8.45174 19.8511C8.64288 20.3595 9.04518 20.3595 9.55815 20.2797C8.74442 21.3287 9.43799 22.4267 8.14923 22.8752C8.2701 23.3028 8.51218 23.6447 8.9872 23.5196C8.85229 23.7283 8.76339 23.7242 8.55258 23.9538C9.25704 24.3939 10.0926 24.0751 10.2816 22.6634C10.315 22.4114 10.6653 22.5693 10.544 22.8167C9.7412 24.4629 11.7717 25.7018 11.0535 26.9097C11.687 26.8835 12.169 26.834 12.4329 26.6225C12.5626 26.8755 12.6399 27.1268 12.6121 27.3742C12.962 27.3038 13.0892 27.0985 13.1135 26.8626C13.3429 27.5265 14.1623 28.2349 15.4735 28.2349C14.7778 27.2519 15.4257 26.2538 14.443 25.1303Z" fill="#1A1919"/>
<path fill-rule="evenodd" clip-rule="evenodd" d="M11.3321 22.4063C11.5714 22.6544 11.8612 22.6795 12.4104 22.6457C11.8068 22.5729 11.4681 22.4272 11.2566 22.0296C11.226 21.8236 11.2053 21.6041 11.1972 21.3699C11.1782 20.7395 11.3873 19.9888 11.8265 19.1664C11.8236 19.6818 12.2354 20.4928 13.1553 20.6276C12.3289 20.2694 11.8426 19.4619 12.1075 18.6806C12.2797 18.4078 12.474 18.1262 12.6908 17.8397C12.8001 17.7017 12.9062 17.5686 13.0095 17.4449C12.8991 17.8429 13.3847 18.2544 13.7094 18.3234C13.5337 18.153 13.1553 17.5986 14.0287 16.672C13.7849 16.7863 13.5154 16.9483 13.3109 17.1062C14.898 15.4056 16.2029 15.3575 16.8026 14.502C15.9345 15.0909 13.6359 15.4087 12.6029 15.1303C13.1728 15.508 14.5466 15.4735 14.8822 15.4031C13.7621 16.4831 11.3166 17.5986 10.8933 18.5914C11.4888 17.9432 11.8746 17.8244 12.39 17.6575C11.9842 18.2586 11.6181 18.7873 11.3658 19.401C10.7158 20.8026 9.84554 20.8203 9.78827 21.9763C10.0852 21.0803 10.687 20.8531 11.1048 20.2652C11.031 20.6405 10.9966 21.0573 11.0096 21.5379C11.0247 22.0606 11.1304 22.5199 11.2977 22.9311C11.2552 23.5026 11.3065 24.4791 11.967 25.1231C11.518 24.5596 11.4221 23.6438 11.4618 23.2862C11.9786 24.2759 13.4532 25.6427 14.1658 26.5613C13.4532 25.3796 11.7063 23.9999 11.3321 22.4063Z" fill="#1A1919"/>
<path fill-rule="evenodd" clip-rule="evenodd" d="M27.6514 17.6575C28.1644 17.8244 28.5512 17.9432 29.1467 18.5914C28.7248 17.5986 26.2765 16.4831 25.1568 15.4031C25.493 15.4732 26.8672 15.508 27.4367 15.1303C26.4048 15.4087 24.1062 15.0909 23.237 14.502C23.8375 15.3575 25.1413 15.4056 26.7291 17.1062C26.5256 16.9483 26.2555 16.7863 26.0106 16.672C26.8837 17.5986 26.5067 18.153 26.3292 18.3241C26.6549 18.2544 27.1405 17.8429 27.0302 17.4449C27.1345 17.5686 27.2406 17.7017 27.3492 17.8397C27.5678 18.1262 27.7606 18.4078 27.9321 18.6806C28.197 19.4619 27.7101 20.2694 26.8854 20.6276C27.8049 20.4935 28.2174 19.6818 28.2128 19.1664C28.6524 19.9888 28.8628 20.7395 28.8428 21.3699C28.8347 21.6041 28.814 21.8236 28.7831 22.0296C28.5712 22.4272 28.2322 22.5729 27.6296 22.6457C28.1798 22.6795 28.4679 22.6544 28.7089 22.4063C28.3341 23.9999 26.5871 25.3796 25.8739 26.5613C26.5871 25.6427 28.0596 24.2759 28.5786 23.2862C28.6186 23.6438 28.5217 24.5596 28.0737 25.1231C28.7339 24.4791 28.7848 23.5026 28.7423 22.9308C28.9092 22.5199 29.0143 22.0606 29.0297 21.5379C29.0455 21.0573 29.0086 20.6405 28.9352 20.2652C29.353 20.8534 29.9548 21.0803 30.2524 21.9763C30.1955 20.8203 29.3252 20.8026 28.6731 19.401C28.4219 18.7873 28.0572 18.2586 27.6514 17.6575Z" fill="#1A1919"/>
<path fill-rule="evenodd" clip-rule="evenodd" d="M30.5897 23.0826C30.615 23.123 30.6818 23.5872 30.861 23.8103C29.9246 23.7503 30.3589 21.7943 29.4222 22.2651C29.1583 22.3971 29.0796 22.7056 29.2019 22.9572C29.8143 24.2145 28.4187 25.323 28.4971 26.4253C28.152 26.4228 27.794 26.4138 27.5709 25.9534C27.4557 26.1827 27.2723 26.5054 27.1721 26.8163L26.8917 26.3444C26.7178 27.1257 25.9824 27.8488 24.9913 27.9144C25.4624 27.17 24.8964 26.1538 26.0492 25.0749C25.9041 24.9599 25.5735 24.7376 25.454 24.5874C26.8682 24.7519 28.3421 23.6433 27.6728 23.1171C27.235 22.7735 27.0425 23.4869 26.3682 23.367L26.6324 23.1405C26.5404 23.0499 26.4329 22.9307 26.3233 22.8422C26.6114 22.8077 26.9244 22.6258 26.9244 22.6258L26.7526 22.3449C28.4085 22.3431 28.4482 21.0872 27.7782 21.037C27.4637 21.014 27.0541 21.5914 26.0344 21.4712C26.1627 21.3154 26.2161 21.0809 26.2793 20.907C26.0341 20.884 25.7421 20.8861 25.5109 20.7739C26.0088 20.7101 26.1335 20.5449 26.5478 20.2334L26.0682 20.0588C26.7656 19.7138 26.722 19.1116 26.7435 18.4847C26.3795 18.6931 25.948 19.0158 25.4927 18.8656C25.3837 18.829 25.3128 18.7795 25.3103 18.6666C25.9652 18.4115 26.3823 17.4124 24.8181 16.5729C23.8202 16.039 21.378 14.8619 23.0329 13.5927C23.2591 13.4205 23.5051 13.2658 23.7131 13.0724C23.9731 13.2703 23.6182 13.7603 23.53 13.9394C23.53 13.9394 24.0802 13.9948 24.2102 13.9948C25.0633 13.991 25.9564 13.4916 25.5043 12.5326C25.843 12.6023 25.883 12.9253 25.9867 13.2017C26.2034 13.0564 26.5801 12.7434 26.8724 12.7877C26.6353 13.538 25.6423 14.2126 24.8704 14.366C25.6501 14.7873 27.0969 15.1006 27.8576 14.1938C28.3906 15.2187 27.6475 15.647 26.9177 16.1837C29.6952 17.4396 29.2848 18.8499 31.1066 19.9591C30.8711 20.0693 29.8157 19.8483 29.7215 19.8351C30.1193 20.3439 30.3044 20.5585 30.4186 20.8063C30.5289 21.0381 30.5781 21.2994 30.6874 21.8643C30.7745 22.3104 30.9316 22.7547 31.4772 23.0499C31.2629 23.4353 30.7875 23.1342 30.5897 23.0826ZM30.4815 20.2794C30.9941 20.3592 31.3971 20.3592 31.5883 19.8511C29.7054 18.9614 29.7215 17.0946 27.5576 16.1174C28.7469 15.2417 28.4261 14.421 27.8738 13.5927C27.2884 14.6186 26.2811 14.7584 25.6627 14.4245C26.5337 14.1098 26.8626 13.0431 27.3903 12.7323C27.06 12.381 26.6388 12.3691 26.1472 12.7013C25.8813 11.9938 25.0067 12.2266 24.8753 12.2266C25.1051 12.4538 25.3219 12.7514 25.2808 13.0703C25.1901 13.7798 24.0268 13.6655 24.0268 13.6655C24.2615 13.186 24.1572 12.8999 23.6347 12.6535C23.4752 13.0348 22.2265 13.5484 22.1453 14.3022C22.0199 15.4797 23.426 16.1948 24.661 16.8587C26.02 17.5874 25.5215 18.3802 25.0292 18.4063C24.7562 19.2437 25.8026 19.3946 26.3981 19.0545C26.3953 19.166 26.3197 19.8379 25.4073 19.8929C25.4842 20.1585 25.635 20.2442 25.8739 20.332C25.6954 20.4644 25.175 20.4843 24.8996 20.4843C24.9319 20.8481 25.3307 21.1402 25.83 21.1896C25.7899 21.2994 25.5682 21.4771 25.369 21.5319C25.9076 22.0647 27.3566 21.7138 27.6514 21.4078C27.7866 21.2667 27.9511 21.4663 27.7905 21.6786C27.6236 21.8957 26.896 22.14 26.3057 21.9601C26.2379 22.2877 26.3517 22.4118 26.4448 22.5003C26.4448 22.5003 25.8676 22.5571 25.7182 22.6379C25.7741 22.884 26.0541 23.0269 26.1525 23.123C26.0541 23.2067 25.9375 23.4029 25.8953 23.5538C26.1599 23.6803 26.8812 23.8779 27.2684 23.4405C27.4251 23.2666 27.5962 23.3774 27.4363 23.5984C26.8671 24.3751 25.5057 24.3877 25.025 24.1448C25.0117 24.7533 25.2769 24.8784 25.5967 25.1303C24.6125 26.2538 25.2625 27.2519 24.5672 28.235C25.877 28.235 26.6967 27.5254 26.9265 26.8626C26.9525 27.0986 27.0783 27.3038 27.4276 27.3742C27.4005 27.1264 27.4785 26.8755 27.6057 26.6225C27.871 26.8341 28.3548 26.8835 28.9869 26.9097C28.2697 25.7018 30.2995 24.463 29.4946 22.8167C29.3754 22.5693 29.725 22.4118 29.7588 22.6634C29.9474 24.0751 30.7833 24.394 31.4881 23.9538C31.2763 23.7242 31.1884 23.7284 31.0531 23.5196C31.5275 23.6447 31.7692 23.3029 31.8911 22.8753C30.6031 22.4268 31.297 21.3287 30.4815 20.2794Z" fill="#1A1919"/>
<path fill-rule="evenodd" clip-rule="evenodd" d="M17.3757 25.4183L17.7622 25.1273C17.8314 25.0754 17.8764 25.0422 17.9548 25.0524L18.5001 25.1234C18.5296 25.2527 18.6174 25.3796 18.6174 25.3796L18.0373 25.2587C17.9548 25.2492 17.9305 25.2527 17.8536 25.3081L17.5788 25.5141C17.5244 25.5563 17.523 25.6232 17.5539 25.6887L17.5981 25.7835L17.4063 25.9274L17.3329 25.7908C17.2587 25.6441 17.2535 25.5117 17.3757 25.4183ZM18.2615 24.4017L18.161 24.4547C18.0914 24.4948 18.0563 24.5122 17.9955 24.4376L17.952 24.3829C17.9302 24.3571 17.9231 24.2927 17.9678 24.2435L18.3996 23.7445L18.0015 23.4207L18.5085 23.6061L18.694 23.3765C18.7481 23.4225 18.7291 23.5549 18.7291 23.5549C18.9347 23.5549 19.5309 23.849 19.5538 24.5857C19.5538 24.5857 19.689 24.7837 19.8608 24.7938L20.7392 24.8467C20.8847 24.8467 21.2487 24.5711 21.717 24.8314C21.8351 24.761 21.9619 24.7046 22.0919 24.6899C22.5048 24.6593 22.8076 24.945 23.0339 25.2315C23.199 25.4392 23.4253 25.7573 23.4253 25.7573C23.328 25.872 23.2324 25.9107 23.1516 25.8817C23.03 25.8194 22.9903 25.7218 22.9513 25.5876C22.8895 25.3737 22.6527 25.191 22.6527 25.191C22.7331 25.3346 22.75 25.4974 22.789 25.6469C22.4454 25.3102 22.3807 24.8983 22.1408 24.8415C22.034 24.8154 21.9103 24.8603 21.7954 24.9924C21.9166 25.2712 21.9103 25.5942 22.0343 25.81C22.1292 25.9713 22.1485 25.9859 22.1907 26.0208C22.2922 26.0933 22.2349 26.2229 22.2195 26.317L22.0891 27.1269H21.8702L22.0143 26.3348C22.0586 26.0933 21.3759 26.0933 21.0263 25.6333C20.728 25.9786 19.8928 25.8922 19.5309 25.8382C19.3855 25.8166 19.2428 25.826 19.1627 25.9685C19.116 26.048 19.0373 26.0243 18.9895 26.0131L18.3304 25.872C18.2144 25.8452 18.1642 25.8678 18.1129 25.9734L17.9811 26.2442C17.952 26.3076 17.9537 26.3539 18.0061 26.4052L18.0683 26.4714C18.0307 26.601 17.9119 26.7 17.9119 26.7L17.7682 26.5393C17.6983 26.4585 17.6944 26.3407 17.7496 26.226L17.9628 25.7842C17.9885 25.7354 18.0338 25.6821 18.1234 25.6821L18.9386 25.6695L18.6894 25.266C18.5032 24.9635 18.8117 24.4244 18.7657 24.1696C18.7425 24.5112 18.3261 24.3554 18.2615 24.4017ZM21.6556 26.2661L21.3035 27.1269H21.085L21.4367 26.2933C21.4732 26.1856 21.404 26.1354 21.3161 26.0177C21.4468 26.0908 21.54 26.1386 21.6981 26.1985C21.6847 26.2229 21.6682 26.2369 21.6556 26.2661ZM17.3641 26.1685L17.7601 25.8354L17.7 25.7166C17.6568 25.6308 17.68 25.626 17.7257 25.5918L17.9347 25.4371C17.9829 25.398 18.0338 25.4029 18.0928 25.4165L18.7207 25.5629H18.0584C17.9056 25.573 17.861 25.6308 17.8058 25.7437L17.7601 25.8354L17.5901 26.1828C17.5321 26.302 17.5019 26.4616 17.654 26.6411L17.7742 26.7833L17.5303 27.2725H17.7359L17.9045 26.9331C17.9179 26.9206 18.167 26.6955 18.22 26.4616C18.148 26.4031 18.0967 26.3627 18.1364 26.2815L18.213 26.1191C18.238 26.065 18.2467 26.0431 18.3198 26.0574L18.9783 26.1985C19.0601 26.2212 19.1806 26.2567 19.2688 26.1253C19.3591 25.9887 19.3714 26.0034 19.5805 26.0243L19.9167 26.0595C20.3766 26.1027 20.8351 25.9887 21.014 25.8486C21.0762 25.9901 21.2006 26.0978 21.2589 26.2083C21.2803 26.249 21.2445 26.3065 21.2164 26.3783L20.8387 27.2725H21.4208L21.7501 26.4567C21.7806 26.3783 21.8253 26.3163 21.859 26.2849L21.6703 27.2725H22.2353L22.385 26.2954C22.418 26.0783 22.3983 26.0079 22.2933 25.9187C22.0575 25.7218 22.0631 25.3081 21.9872 25.0569C22.0269 25.0339 22.0733 25.0224 22.1292 25.0287C22.2525 25.0398 22.3446 25.3517 22.4897 25.5521C22.7788 25.9553 23.1734 26.3999 23.6252 25.7734C23.5817 25.7023 23.5342 25.6368 23.4794 25.5747L23.3533 25.428C23.2802 25.3472 22.9303 24.9502 22.7844 24.807C22.4531 24.476 21.944 24.5265 21.7413 24.6871C21.2821 24.4484 20.7976 24.699 20.683 24.6899L19.8921 24.6425C19.8563 24.6401 19.8015 24.6282 19.7628 24.5669L19.9097 24.5192C19.7723 23.9515 19.4266 23.4758 18.8223 23.3946C18.8223 23.3946 18.7871 23.2151 18.6947 23.1806L18.5145 23.3911C18.4635 23.3981 18.408 23.4138 18.3627 23.4336L17.5915 23.1489L18.1708 23.7288C18.1708 23.7288 17.8701 24.1508 17.7851 24.2372C17.7278 24.3157 17.7334 24.3773 17.797 24.453L17.9091 24.5993C17.9678 24.6749 18.0307 24.6718 18.1234 24.6248L18.2506 24.5596C18.3058 24.5136 18.4913 24.6042 18.571 24.5321C18.5201 24.6972 18.4944 24.8558 18.4828 24.982L17.9628 24.9203C17.8494 24.9049 17.7977 24.9203 17.7288 24.9736L17.2854 25.312C17.1407 25.4224 17.0957 25.6124 17.185 25.7974L17.3641 26.1685Z" fill="#1A1919"/>
<path fill-rule="evenodd" clip-rule="evenodd" d="M19.0566 15.0383C19.2671 15.1826 19.6409 15.3376 19.6409 15.3376V15.0909L18.8177 14.7783C18.8177 14.7783 18.8177 14.8783 19.0566 15.0383Z" fill="#1A1919"/>
<path fill-rule="evenodd" clip-rule="evenodd" d="M19.6409 14.7412V14.4951L18.707 14.1641C18.707 14.1641 18.8176 14.2815 19.0566 14.4429C19.267 14.5864 19.6409 14.7412 19.6409 14.7412Z" fill="#1A1919"/>
<path fill-rule="evenodd" clip-rule="evenodd" d="M19.6409 14.1817V13.9346L18.6177 13.561C18.6177 13.561 18.8177 13.7217 19.0566 13.8827C19.267 14.0273 19.6409 14.1817 19.6409 14.1817Z" fill="#1A1919"/>
<path fill-rule="evenodd" clip-rule="evenodd" d="M22.5153 17.5476H23.5616C23.5184 17.3955 23.3558 17.2427 23.0501 17.2427C22.7616 17.2427 22.5877 17.4099 22.5153 17.5476Z" fill="#1A1919"/>
<path fill-rule="evenodd" clip-rule="evenodd" d="M21.4208 13.561L20.3991 13.9346V14.1817C20.3991 14.1817 20.7733 14.0273 20.9845 13.8827C21.2223 13.7217 21.4208 13.561 21.4208 13.561Z" fill="#1A1919"/>
<path fill-rule="evenodd" clip-rule="evenodd" d="M21.222 14.7783L20.3991 15.0909V15.3376C20.3991 15.3376 20.7733 15.1826 20.9845 15.0383C21.222 14.8783 21.222 14.7783 21.222 14.7783Z" fill="#1A1919"/>
<path fill-rule="evenodd" clip-rule="evenodd" d="M21.333 14.1641L20.3991 14.4951V14.7412C20.3991 14.7412 20.774 14.5871 20.9845 14.4429C21.222 14.2815 21.333 14.1641 21.333 14.1641Z" fill="#1A1919"/>
<path fill-rule="evenodd" clip-rule="evenodd" d="M16.9871 17.2427C16.6821 17.2427 16.5198 17.3955 16.4763 17.5476H17.5233C17.4488 17.4096 17.2773 17.2427 16.9871 17.2427Z" fill="#1A1919"/>
<path fill-rule="evenodd" clip-rule="evenodd" d="M20.0204 13.439L18.3391 12.7804C18.4818 12.4455 19.1409 12.1597 20.0204 12.1597C20.8991 12.1597 21.5572 12.4455 21.7002 12.7804L20.0204 13.439ZM21.2712 15.4968L20.1384 16.0878V13.6997L21.6773 13.1815L21.2712 15.4968ZM22.5954 16.4924C22.1706 16.5656 21.8056 17.081 21.5066 17.5452L21.4732 17.5985H21.1542L21.1528 17.6532C21.1197 18.0122 20.7772 18.4987 20.0193 18.4987C19.6697 18.4987 19.4062 18.3924 19.2246 18.2477C19.0671 18.1212 18.9695 17.9648 18.9206 17.8149C18.9031 17.7606 18.8915 17.7058 18.8869 17.6532L18.8841 17.5985H18.5672L18.5331 17.5452C18.2323 17.081 17.8673 16.5656 17.4446 16.4924L18.6002 15.8268L20.0204 16.5921L21.4384 15.8268L22.5954 16.4924ZM24.1547 18.2477C24.0331 18.5603 23.9358 18.8998 23.9358 19.2399V22.8864H23.5082C23.3139 22.6996 23.1498 22.0783 23.1498 22.0783C23.0434 22.3024 23.1657 22.755 23.2791 22.8864H22.7286C22.5919 22.7035 22.4742 22.0556 22.4742 22.0556C22.3094 22.2421 22.4138 22.7463 22.5157 22.8864H22.1499C22.1271 22.6275 22.2019 22.3452 22.2019 22.3452C22.0104 22.31 21.8066 22.2104 21.8073 21.9992C21.904 22.0891 21.9433 22.0877 22.0775 22.0849L22.2328 21.9633C21.717 21.98 21.6931 21.4183 22.1021 21.1555C21.6931 21.1684 21.3878 20.9276 21.5368 20.4969C21.2459 20.3477 21.1436 19.8598 21.3583 19.6452C21.203 19.4775 21.177 19.1493 21.2768 18.9248C21.0706 18.9248 20.8387 18.8433 20.7094 18.7039C20.6995 18.7084 20.6876 18.7116 20.677 18.7154C20.9349 18.6109 21.1528 18.4492 21.3003 18.2477H24.1547ZM23.9369 25.4917C23.9369 26.2521 23.5824 26.8306 22.9931 27.1505L23.2043 26.7246H22.9998L22.7293 27.27C22.4486 27.376 22.1295 27.4335 21.7778 27.4335C20.702 27.4335 20.4177 27.4767 20.0207 27.8701C19.6216 27.4767 19.3377 27.4335 18.2636 27.4335C17.914 27.4335 17.5957 27.377 17.3167 27.2725H17.3234L17.5946 26.7246H17.3908L17.1526 27.2038C17.0957 27.1773 17.0409 27.1487 16.9882 27.1174L17.1836 26.7246H16.9805L16.835 27.017C16.374 26.6811 16.1038 26.1556 16.1038 25.4917V23.1004H23.9369V25.4917ZM18.6048 21.1245L18.9347 21.1653C18.9596 21.3444 18.9122 21.6486 18.7945 21.8183L18.4744 21.727C18.5598 21.5259 18.5812 21.3381 18.6048 21.1245ZM18.129 20.8847C18.129 20.8847 18.4323 20.8704 18.518 20.9022C18.5812 20.9283 18.538 21.0339 18.4565 21.0217C18.3711 21.0116 18.129 20.8847 18.129 20.8847ZM18.109 19.6915L17.8371 20.676L17.9295 19.0876L18.3518 18.7297L18.5665 19.197L18.0236 20.7394L18.167 19.7013C18.1807 19.6288 18.1213 19.6208 18.109 19.6915ZM17.9 21.3332C17.7577 21.3893 17.6115 21.3123 17.6565 21.2214C17.7222 21.2806 17.907 21.2517 17.907 21.2517L17.9 21.3332ZM17.6319 21.4643C17.6983 21.5273 17.8971 21.5033 17.8971 21.5033L17.9045 21.543C17.8174 21.658 17.5767 21.6061 17.6319 21.4643ZM17.3192 20.83C17.2433 20.7795 17.2774 20.6697 17.362 20.6697C17.4541 20.6722 17.5781 20.776 17.7 20.8283C17.7 20.8283 17.3807 20.8708 17.3192 20.83ZM17.622 21.7037C17.622 21.7037 17.7134 21.7413 17.8293 21.7504C17.816 21.8134 17.7668 21.8741 17.6888 21.8567C17.6241 21.8424 17.5946 21.7622 17.622 21.7037ZM17.8371 21.1081C17.6832 21.1576 17.6161 21.0475 17.6227 20.9541C17.9231 20.8457 18.057 20.9154 18.1448 20.9712C18.2253 21.0217 18.2928 21.1653 18.4013 21.2548C18.3838 21.3775 18.3458 21.5538 18.3016 21.6723C17.9945 21.5939 17.9783 21.3252 18.0928 21.1621C18.0289 21.0875 17.9607 21.0687 17.8371 21.1081ZM19.1687 21.1956L19.4976 21.2343C19.5302 21.4137 19.4684 21.7946 19.3447 21.9762L19.0092 21.88C19.1434 21.7058 19.1926 21.3956 19.1687 21.1956ZM19.7347 21.2642L20.006 21.2977C20.0492 21.5214 20.0207 21.9082 19.877 22.1281L19.5615 22.0375C19.6992 21.8507 19.7646 21.4667 19.7347 21.2642ZM20.2206 21.3238H20.2266C20.2972 21.3346 20.3714 21.3224 20.4392 21.2949C20.5857 21.5033 20.7006 21.9762 20.5242 22.2717C20.4248 22.2734 20.3267 22.256 20.2354 22.2302L20.1627 22.2086C20.3109 21.98 20.2898 21.5765 20.2206 21.3238ZM20.6352 21.1653L20.8281 20.9781C21.0238 21.1478 21.2814 21.5273 21.2009 21.8873L20.9908 22.0783C20.9479 22.1198 20.903 22.1504 20.8573 22.1783C20.9883 21.8567 20.8211 21.3611 20.6352 21.1653ZM21.7641 21.2719C21.7223 21.3277 21.6879 21.3928 21.6661 21.4632L21.4324 21.6765C21.4792 21.3374 21.2494 20.9356 21.0396 20.7725L21.2884 20.5307L21.3379 20.5802C21.2547 20.7966 21.417 21.2214 21.7641 21.2719ZM21.1436 19.6312C21.0207 19.864 21.033 20.1323 21.1777 20.3756L21.0814 20.4693C20.6623 20.4174 20.4964 19.7975 20.4964 19.7975C20.4884 19.8529 20.4831 19.9076 20.4841 19.963C20.2396 19.8731 20.0847 19.6574 20.0973 19.3622C20.1897 19.4131 20.2937 19.4497 20.4044 19.4685L20.4328 19.2873C20.1398 19.2367 19.9687 19.0548 19.9037 18.8405C19.89 18.8391 19.8774 18.836 19.864 18.8349C19.9164 18.8391 19.9673 18.8433 20.0207 18.8433C20.1946 18.8433 20.3591 18.8165 20.514 18.7715C20.6356 18.943 20.8517 19.0663 21.0684 19.0904C21.0344 19.2312 21.0512 19.4099 21.1436 19.6312ZM18.7393 18.2477C18.9417 18.5223 19.2699 18.7255 19.6585 18.805C19.6915 18.9499 19.7702 19.1088 19.9248 19.2367C19.8608 19.6629 20.0453 20.0613 20.508 20.1672C20.5562 20.3843 20.6928 20.5488 20.9198 20.6265L20.5987 20.9952C20.4761 21.1363 20.3155 21.1813 20.1827 21.1653L18.7457 21.0029C18.8078 20.8447 18.6424 20.6617 18.1881 20.7405L18.7527 19.1737L18.408 18.4467L17.7548 18.9998L17.7071 20.6429L17.4298 20.507C17.0648 20.3512 16.9587 21.0053 17.3048 21.0081L17.4425 21.0095C17.4337 21.0764 17.4541 21.151 17.5075 21.1736C17.4425 21.2008 17.4228 21.3224 17.5054 21.366C17.4221 21.4043 17.4112 21.5287 17.478 21.5824C17.4053 21.7037 17.3944 21.9647 17.6463 22.0309C17.8522 22.0849 17.9811 21.8647 18.0236 21.7364L20.2593 22.4233C20.5758 22.5135 20.8007 22.463 21.0632 22.2344L21.6468 21.7284C21.5733 22.0591 21.6935 22.3574 21.9475 22.456C21.9475 22.456 21.911 22.7533 21.9226 22.8864H16.1038V19.2399C16.1038 18.8998 16.0051 18.5603 15.8871 18.2477H18.7393ZM18.362 13.1815L19.8998 13.6997V16.0878L18.7667 15.4968L18.362 13.1815ZM22.0983 12.8971C22.0983 12.3134 21.1096 11.791 20.0193 11.791C18.928 11.791 17.9393 12.3134 17.9393 12.8971L17.9621 13.0403L18.3961 15.5195L16.3347 16.7113C16.1154 16.8388 15.8407 17.1911 15.8059 17.5452H16.1822C16.2444 17.1915 16.5262 16.7987 17.0521 16.8231C17.5279 16.8479 17.81 17.135 18.09 17.5452L18.1621 17.6532L18.2657 17.8149H15.2343C15.4567 18.2585 15.6689 18.7293 15.6689 19.2399V25.4917C15.6689 27.1003 16.9144 27.8663 18.2636 27.8663C19.305 27.8663 19.4455 27.8192 20.0207 28.3897C20.5938 27.8192 20.734 27.8663 21.7778 27.8663C23.1256 27.8663 24.3722 27.1003 24.3722 25.4917V19.2399C24.3722 18.7293 24.5834 18.2585 24.8058 17.8149H21.7722L21.8766 17.6532L21.9489 17.5452C22.2279 17.135 22.5107 16.8479 22.9868 16.8231C23.511 16.7987 23.7942 17.1915 23.8564 17.5452H24.2317C24.1983 17.1911 23.9225 16.8388 23.7036 16.7113L21.6422 15.5195L22.0772 13.0403L22.0983 12.8971Z" fill="#1A1919"/>
<path fill-rule="evenodd" clip-rule="evenodd" d="M23.7577 20.6042L23.7608 20.4216C23.1952 20.4084 23.0659 19.7466 23.0659 19.7466C22.9004 20.2338 23.3318 20.5969 23.7577 20.6042Z" fill="#1A1919"/>
<path fill-rule="evenodd" clip-rule="evenodd" d="M23.0434 21.7245L22.9868 21.5517C22.5048 21.674 22.2549 20.916 22.2549 20.916C22.1007 21.4666 22.639 21.8566 23.0434 21.7245Z" fill="#1A1919"/>
<path fill-rule="evenodd" clip-rule="evenodd" d="M23.3789 21.0216C22.8023 21.1122 22.5659 20.4473 22.5659 20.4473C22.5019 20.809 22.7384 21.1766 23.12 21.2153C23.0339 21.6882 23.4762 21.9301 23.8592 21.7618L23.804 21.5973C23.471 21.7081 23.159 21.3812 23.3789 21.0216Z" fill="#1A1919"/>
<path fill-rule="evenodd" clip-rule="evenodd" d="M23.0339 19.1242L23.0388 18.9413C22.2785 18.7858 22.3417 18.2666 22.3417 18.2666C22.1777 18.7555 22.6095 19.1166 23.0339 19.1242Z" fill="#1A1919"/>
<path fill-rule="evenodd" clip-rule="evenodd" d="M18.2144 26.7246L17.9421 27.2724H18.1466L18.4185 26.7246H18.2144Z" fill="#1A1919"/>
<path fill-rule="evenodd" clip-rule="evenodd" d="M18.6248 26.7246L18.3535 27.2724H18.5598L18.8292 26.7246H18.6248Z" fill="#1A1919"/>
<path fill-rule="evenodd" clip-rule="evenodd" d="M20.2716 26.7246L20.0007 27.2724H20.2048L20.4764 26.7246H20.2716Z" fill="#1A1919"/>
<path fill-rule="evenodd" clip-rule="evenodd" d="M20.6844 26.7246L20.4111 27.2724H20.6173L20.8875 26.7246H20.6844Z" fill="#1A1919"/>
<path fill-rule="evenodd" clip-rule="evenodd" d="M19.8609 26.7246L19.5886 27.2724H19.793L20.0653 26.7246H19.8609Z" fill="#1A1919"/>
<path fill-rule="evenodd" clip-rule="evenodd" d="M22.2658 27.2724H22.4706L22.7426 26.7246H22.5374L22.2658 27.2724Z" fill="#1A1919"/>
<path fill-rule="evenodd" clip-rule="evenodd" d="M19.0373 26.7246L18.7657 27.2724H18.9709L19.2425 26.7246H19.0373Z" fill="#1A1919"/>
<path fill-rule="evenodd" clip-rule="evenodd" d="M19.4473 26.7246L19.1757 27.2724H19.382L19.6536 26.7246H19.4473Z" fill="#1A1919"/>
<path fill-rule="evenodd" clip-rule="evenodd" d="M18.5162 23.7803C18.4793 23.7803 18.4463 23.8172 18.4463 23.8639C18.4463 23.9092 18.4793 23.9468 18.5162 23.9468C18.5552 23.9468 18.5882 23.9092 18.5882 23.8639C18.5882 23.8172 18.5552 23.7803 18.5162 23.7803Z" fill="#1A1919"/>
<path fill-rule="evenodd" clip-rule="evenodd" d="M18.4329 11.1223L18.7569 10.441L19.3577 10.7574L20.0207 10.1078L20.684 10.7574L21.2841 10.441L21.6046 11.1223L22.0037 11.0613C21.9011 11.2519 21.8242 11.4174 21.7532 11.6506C21.3168 11.3983 20.6686 11.2035 20.0207 11.2035C19.3703 11.2035 18.7238 11.3983 18.2871 11.6506C18.2144 11.4174 18.1388 11.2519 18.0352 11.0613L18.4329 11.1223ZM20.0207 11.4206C20.8646 11.4206 21.5406 11.698 21.9138 11.9963C21.9138 11.9963 22.0255 11.3314 22.4035 10.7484L21.7233 10.8236L21.3681 10.073L20.684 10.4257L20.0207 9.77295L19.3577 10.4257L18.6722 10.073L18.3163 10.8236L17.6364 10.7484C18.0155 11.3314 18.1258 11.9963 18.1258 11.9963C18.4983 11.698 19.1757 11.4206 20.0207 11.4206Z" fill="#1A1919"/>
<path fill-rule="evenodd" clip-rule="evenodd" d="M20.7146 10.0778C20.8134 10.0862 20.9008 10.012 20.9093 9.91544C20.9191 9.81786 20.7747 9.55615 20.7747 9.55615C20.7747 9.55615 20.5586 9.78685 20.5516 9.88512C20.5425 9.98165 20.6166 10.0681 20.7146 10.0778Z" fill="#1A1919"/>
<path fill-rule="evenodd" clip-rule="evenodd" d="M21.8291 10.4821C21.9166 10.5292 22.0237 10.4944 22.0712 10.4066C22.119 10.3198 22.0877 10.0215 22.0877 10.0215C22.0877 10.0215 21.8006 10.1508 21.7532 10.239C21.7082 10.3258 21.7413 10.4343 21.8291 10.4821Z" fill="#1A1919"/>
<path fill-rule="evenodd" clip-rule="evenodd" d="M19.324 10.0778C19.4248 10.0681 19.4976 9.98165 19.4888 9.88512C19.4796 9.78685 19.2657 9.55615 19.2657 9.55615C19.2657 9.55615 19.122 9.81786 19.1311 9.91544C19.1392 10.012 19.2274 10.0862 19.324 10.0778Z" fill="#1A1919"/>
<path fill-rule="evenodd" clip-rule="evenodd" d="M18.2116 10.4821C18.2991 10.4343 18.3325 10.3258 18.2858 10.239C18.2394 10.1508 17.952 10.0215 17.952 10.0215C17.952 10.0215 17.9211 10.3198 17.9695 10.4066C18.0156 10.4944 18.1238 10.5292 18.2116 10.4821Z" fill="#1A1919"/>
<path fill-rule="evenodd" clip-rule="evenodd" d="M30.5384 16.6859C30.6115 16.8476 30.7573 17.4101 30.4095 17.8394C30.0135 17.0536 29.4682 16.3807 29.0269 16.0904C28.9306 16.0283 29.0803 15.9189 29.3522 15.8834C30.1737 15.729 31.136 16.074 31.5946 16.1949C31.3813 16.3531 31.2077 16.4246 30.9899 16.4511C31.3233 16.7281 31.5661 16.9626 31.7376 17.224C31.415 17.3031 31.2334 17.1006 30.5384 16.6859ZM31.5749 16.5525C31.812 16.4685 31.9958 16.2441 32.0872 16.0364C31.4832 15.9503 29.8786 15.2819 28.5596 15.8259C29.0536 15.361 29.4973 15.3007 29.5395 14.632C29.744 14.7783 30.0904 14.8606 30.2854 14.5117C30.1491 14.1134 29.8062 14.4358 29.7577 14.3263C29.6906 14.1737 30.1909 14.3734 30.2977 13.8559C29.9088 13.7235 29.7925 14.0385 29.7229 13.9653C29.6586 13.896 29.9699 13.7628 29.7408 13.3457C29.3361 13.5809 29.5465 13.8458 29.4612 13.8757C29.3572 13.9162 29.439 13.5928 28.9914 13.6074C28.9471 14.0848 29.412 14.0998 29.3361 14.1754C29.2437 14.2681 29.1221 13.9015 28.7841 14.0873C28.7901 14.4727 29.1045 14.6842 29.4295 14.5933C29.3761 15.3254 28.6994 15.1888 28.1949 16.0137C29.263 16.557 29.7461 17.5042 30.4035 18.159C30.6206 18.0063 30.9916 17.3268 30.9916 17.3268C31.7028 17.8736 32.2031 17.3292 32.2031 17.3292C31.9582 17.0804 31.9494 16.8912 31.5749 16.5525Z" fill="#1A1919"/>
<path fill-rule="evenodd" clip-rule="evenodd" d="M19.8218 29.5439L19.3591 29.5269L19.306 29.7105L19.364 29.7136C19.3833 29.7136 19.3833 29.6777 19.4002 29.6582C19.4093 29.6513 19.4933 29.6373 19.5597 29.6443L19.7537 29.6589C19.6395 29.8945 19.3408 30.1161 19.3447 30.2726C19.3485 30.3559 19.4339 30.3723 19.4849 30.3702C19.5783 30.3671 19.6075 30.3015 19.6317 30.2012C19.6883 29.9694 19.8014 29.7927 19.8829 29.5269L19.8253 29.5289L19.8218 29.5439Z" fill="#1A1919"/>
<path fill-rule="evenodd" clip-rule="evenodd" d="M20.1384 29.8184L20.1454 29.6766H20.5477L20.5263 29.519C20.4163 29.5225 20.255 29.5581 20.1068 29.5588L20.0787 29.8675C20.2652 29.8592 20.3868 29.9397 20.3868 30.1334C20.3868 30.2056 20.339 30.3404 20.255 30.3505C20.2354 30.3533 20.2101 30.3467 20.1978 30.3373C20.1574 30.3073 20.2104 30.2742 20.2104 30.2244C20.2104 30.1603 20.144 30.1376 20.1001 30.1453C20.0309 30.1501 20.0063 30.1948 20.0063 30.2488C20.0063 30.3624 20.1763 30.3941 20.2494 30.3941C20.4146 30.3941 20.605 30.3031 20.605 30.1177C20.605 29.8735 20.3295 29.8233 20.1384 29.8184Z" fill="#1A1919"/>
<path fill-rule="evenodd" clip-rule="evenodd" d="M21.1022 29.944C20.9588 29.944 20.9384 29.7227 20.9384 29.615C20.9384 29.5847 20.9658 29.5422 20.9978 29.5422C21.1285 29.5422 21.1644 29.8433 21.1749 29.9283C21.1538 29.9363 21.1285 29.944 21.1022 29.944ZM21.0108 29.5C20.8668 29.5 20.7484 29.607 20.7484 29.7523C20.7484 29.9823 20.9971 30.0576 21.1816 29.9708C21.2041 30.1492 21.1675 30.2771 21.0994 30.2813C21.0414 30.2813 21.0498 30.2381 21.0414 30.2012C21.0263 30.1318 20.9711 30.1133 20.9138 30.1318C20.8538 30.1492 20.845 30.2015 20.8552 30.2416C20.8819 30.3318 20.9943 30.3336 21.0484 30.3273C21.2849 30.3005 21.3843 30.1262 21.3843 29.9325C21.3843 29.7084 21.2546 29.5 21.0108 29.5Z" fill="#1A1919"/>
<path fill-rule="evenodd" clip-rule="evenodd" d="M19.0341 29.4531C19.013 29.4793 18.9136 29.6023 18.7003 29.7598L18.7179 29.7908C18.7418 29.7783 18.7794 29.7608 18.8437 29.7225L18.7179 30.1581C18.7112 30.1818 18.6817 30.1839 18.668 30.1818L18.5932 30.171L18.5795 30.2222L18.9874 30.2947L19 30.2435L18.9294 30.2282C18.9087 30.2222 18.8957 30.2076 18.8992 30.1839L19.0854 29.4608L19.0341 29.4531Z" fill="#1A1919"/>
<path fill-rule="evenodd" clip-rule="evenodd" d="M22.1263 29.9674L21.7641 28.7993C22.5357 28.6411 23.0729 28.4783 23.4826 28.3215V29.0502L24.1189 29.3046C23.5816 29.5471 22.9144 29.7886 22.1263 29.9674ZM20.0207 30.6508C19.3008 30.6508 18.5984 30.5442 17.998 30.3978L18.3799 29.1725C18.6332 29.2307 19.267 29.3081 20.0207 29.3081C20.7747 29.3081 21.4061 29.2307 21.6604 29.1725L22.0441 30.3978C21.4409 30.5442 20.7381 30.6508 20.0207 30.6508ZM15.9201 29.3046L16.5574 29.0502V28.3215C16.9671 28.4783 17.5043 28.6411 18.2762 28.7993L17.9143 29.9674C17.1277 29.7886 16.459 29.5471 15.9201 29.3046ZM23.6797 28.8986V28.0044C22.9833 28.3215 22.0965 28.578 20.9567 28.6798L20.9047 28.9993C21.0017 29.0129 21.1243 29.0248 21.2884 29.0352C20.8657 29.0924 20.3197 29.1206 20.0207 29.1206C19.721 29.1206 19.1757 29.0924 18.7527 29.0352C18.916 29.0248 19.038 29.0129 19.1349 28.9993L19.0833 28.6798C17.9431 28.578 17.0553 28.3215 16.3607 28.0044V28.8986L15.4155 29.2833C16.1154 29.6444 16.9211 29.9388 17.8521 30.1765L17.7418 30.5511C18.2752 30.7058 19.1272 30.8648 20.0207 30.8648C20.9138 30.8648 21.7655 30.7058 22.2989 30.5511L22.1889 30.1765C23.1186 29.9388 23.926 29.6444 24.6259 29.2833L23.6797 28.8986Z" fill="#1A1919"/>
<path fill-rule="evenodd" clip-rule="evenodd" d="M8.30135 17.224C8.47387 16.9626 8.7156 16.7281 9.05079 16.4521C8.83154 16.4246 8.65938 16.3531 8.44435 16.1949C8.90322 16.074 9.86838 15.729 10.6898 15.8834C10.9597 15.9189 11.1118 16.0283 11.0131 16.09C10.5714 16.3807 10.0261 17.0536 9.62946 17.8391C9.28268 17.4101 9.42919 16.8476 9.50122 16.6859C8.8073 17.101 8.62635 17.3031 8.30135 17.224ZM9.04833 17.3268C9.04833 17.3268 9.42006 18.0063 9.63544 18.1586C10.2942 17.5042 10.7777 16.557 11.8451 16.0137C11.3398 15.1888 10.6621 15.3275 10.6118 14.5933C10.9361 14.6842 11.2499 14.472 11.2566 14.0873C10.9168 13.9026 10.7959 14.2699 10.7046 14.1754C10.6284 14.0984 11.0932 14.0848 11.0493 13.6081C10.6013 13.5942 10.6832 13.9162 10.5781 13.8757C10.4941 13.8454 10.7046 13.5802 10.2977 13.3457C10.0697 13.7649 10.3817 13.8956 10.3174 13.9653C10.2482 14.0385 10.1308 13.7235 9.74225 13.8559C9.84765 14.3734 10.3501 14.1737 10.2823 14.3263C10.2345 14.4358 9.89122 14.1134 9.7563 14.5117C9.94954 14.8606 10.2963 14.7783 10.4994 14.6323C10.5433 15.3035 10.9857 15.3596 11.4807 15.8259C10.1621 15.2819 8.55749 15.9499 7.95141 16.0371C8.04452 16.2441 8.22757 16.4685 8.46508 16.5504C8.09089 16.8926 8.08211 17.0808 7.83722 17.3292C7.83722 17.3292 8.33614 17.8736 9.04833 17.3268Z" fill="#1A1919"/>
<path fill-rule="evenodd" clip-rule="evenodd" d="M19.4424 16.8286V17.2221C19.5791 17.059 19.8436 17.091 19.8436 17.091V17.6577C19.8436 17.6577 19.8341 17.9375 19.7347 18.0577H20.3071C20.2073 17.9375 20.1978 17.6577 20.1978 17.6577V17.091C20.1978 17.091 20.4617 17.059 20.5987 17.2221V16.8286H19.4424Z" fill="#1A1919"/>
</svg>
