<svg width="62" height="108" viewBox="0 0 62 108" fill="none" xmlns="http://www.w3.org/2000/svg">
<rect x="0.5" y="0.5" width="61" height="107" rx="4.5" stroke="#7B61FF" stroke-dasharray="10 5"/>
<path fill-rule="evenodd" clip-rule="evenodd" d="M29.4064 38.3333L29.3475 38.5H22.75C22.3358 38.5 22 38.8358 22 39.25C22 39.6642 22.3358 40 22.75 40H29.3475L29.4064 40.1667C29.7916 41.2565 30.8252 42 32 42C33.1748 42 34.2084 41.2565 34.5936 40.1667L34.6525 40H41.25C41.6642 40 42 39.6642 42 39.25C42 38.8358 41.6642 38.5 41.25 38.5H34.6525L34.5936 38.3333C34.2084 37.2435 33.1748 36.5 32 36.5C30.8252 36.5 29.7916 37.2435 29.4064 38.3333ZM25.3475 31.25L25.4064 31.0833C25.7916 29.9935 26.8252 29.25 28 29.25C29.1748 29.25 30.2084 29.9935 30.5936 31.0833L30.6525 31.25H41.25C41.6642 31.25 42 31.5858 42 32C42 32.4142 41.6642 32.75 41.25 32.75H30.6525L30.5936 32.9167C30.2084 34.0065 29.1748 34.75 28 34.75C26.8252 34.75 25.7916 34.0065 25.4064 32.9167L25.3475 32.75H22.75C22.3358 32.75 22 32.4142 22 32C22 31.5858 22.3358 31.25 22.75 31.25H25.3475ZM33.3475 24L33.4064 23.8333C33.7916 22.7435 34.8252 22 36 22C37.1748 22 38.2084 22.7435 38.5936 23.8333L38.6525 24H41.25C41.6642 24 42 24.3358 42 24.75C42 25.1642 41.6642 25.5 41.25 25.5H38.6525L38.5936 25.6667C38.2084 26.7565 37.1748 27.5 36 27.5C34.8252 27.5 33.7916 26.7565 33.4064 25.6667L33.3475 25.5H22.75C22.3358 25.5 22 25.1642 22 24.75C22 24.3358 22.3358 24 22.75 24H33.3475ZM32 40.5C32.6904 40.5 33.25 39.9404 33.25 39.25C33.25 38.5596 32.6904 38 32 38C31.3096 38 30.75 38.5596 30.75 39.25C30.75 39.9404 31.3096 40.5 32 40.5ZM29.25 32C29.25 32.6904 28.6904 33.25 28 33.25C27.3096 33.25 26.75 32.6904 26.75 32C26.75 31.3096 27.3096 30.75 28 30.75C28.6904 30.75 29.25 31.3096 29.25 32ZM36 26C36.6904 26 37.25 25.4404 37.25 24.75C37.25 24.0596 36.6904 23.5 36 23.5C35.3096 23.5 34.75 24.0596 34.75 24.75C34.75 25.4404 35.3096 26 36 26Z" fill="white"/>
<path fill-rule="evenodd" clip-rule="evenodd" d="M29.4064 82.3333L29.3475 82.5H22.75C22.3358 82.5 22 82.8358 22 83.25C22 83.6642 22.3358 84 22.75 84H29.3475L29.4064 84.1667C29.7916 85.2565 30.8252 86 32 86C33.1748 86 34.2084 85.2565 34.5936 84.1667L34.6525 84H41.25C41.6642 84 42 83.6642 42 83.25C42 82.8358 41.6642 82.5 41.25 82.5H34.6525L34.5936 82.3333C34.2084 81.2435 33.1748 80.5 32 80.5C30.8252 80.5 29.7916 81.2435 29.4064 82.3333ZM25.3475 75.25L25.4064 75.0833C25.7916 73.9935 26.8252 73.25 28 73.25C29.1748 73.25 30.2084 73.9935 30.5936 75.0833L30.6525 75.25H41.25C41.6642 75.25 42 75.5858 42 76C42 76.4142 41.6642 76.75 41.25 76.75H30.6525L30.5936 76.9167C30.2084 78.0065 29.1748 78.75 28 78.75C26.8252 78.75 25.7916 78.0065 25.4064 76.9167L25.3475 76.75H22.75C22.3358 76.75 22 76.4142 22 76C22 75.5858 22.3358 75.25 22.75 75.25H25.3475ZM33.3475 68L33.4064 67.8333C33.7916 66.7435 34.8252 66 36 66C37.1748 66 38.2084 66.7435 38.5936 67.8333L38.6525 68H41.25C41.6642 68 42 68.3358 42 68.75C42 69.1642 41.6642 69.5 41.25 69.5H38.6525L38.5936 69.6667C38.2084 70.7565 37.1748 71.5 36 71.5C34.8252 71.5 33.7916 70.7565 33.4064 69.6667L33.3475 69.5H22.75C22.3358 69.5 22 69.1642 22 68.75C22 68.3358 22.3358 68 22.75 68H33.3475ZM32 84.5C32.6904 84.5 33.25 83.9404 33.25 83.25C33.25 82.5596 32.6904 82 32 82C31.3096 82 30.75 82.5596 30.75 83.25C30.75 83.9404 31.3096 84.5 32 84.5ZM29.25 76C29.25 76.6904 28.6904 77.25 28 77.25C27.3096 77.25 26.75 76.6904 26.75 76C26.75 75.3096 27.3096 74.75 28 74.75C28.6904 74.75 29.25 75.3096 29.25 76ZM36 70C36.6904 70 37.25 69.4404 37.25 68.75C37.25 68.0596 36.6904 67.5 36 67.5C35.3096 67.5 34.75 68.0596 34.75 68.75C34.75 69.4404 35.3096 70 36 70Z" fill="white"/>
<rect x="37" y="63" width="18" height="18" rx="9" fill="#6C78E6" stroke="#352F3D" stroke-width="2"/>
<path d="M43.6709 75H48.417V74.0674H45.1602V73.9697L46.6543 72.4805C47.9336 71.2109 48.3047 70.5957 48.3047 69.7949V69.7803C48.3047 68.6182 47.3379 67.7832 46.0244 67.7832C44.6084 67.7832 43.6123 68.6914 43.6074 69.9805L43.6172 69.9902H44.6426L44.6475 69.9756C44.6475 69.2041 45.1748 68.6865 45.9658 68.6865C46.7373 68.6865 47.2109 69.1943 47.2109 69.8828V69.8975C47.2109 70.4688 46.9424 70.8301 46.0098 71.8018L43.6709 74.2578V75Z" fill="white"/>
</svg>
