<svg width="40" height="28" viewBox="0 0 40 28" fill="none" xmlns="http://www.w3.org/2000/svg">
<rect width="40" height="28" fill="#352F3D"/>
<rect width="40" height="28" rx="2.5" fill="#2BCB5C"/>
<mask id="mask0_0_11994" style="mask-type:luminance" maskUnits="userSpaceOnUse" x="0" y="0" width="40" height="28">
<rect width="40" height="28" rx="2.5" fill="white"/>
</mask>
<g mask="url(#mask0_0_11994)">
<path fill-rule="evenodd" clip-rule="evenodd" d="M9.24158 15.7918L9.24159 15.7918L2.12324 19.8202L-1.16982 17.9534C-1.0987 17.8717 -1.03181 17.79 -0.966124 17.7098C-0.847486 17.5649 -0.732806 17.4249 -0.604347 17.2984L2.15651 18.8377L8.31022 15.3333C8.64285 15.4643 8.94222 15.6281 9.24158 15.7918ZM10.7384 16.9054C10.5832 16.7525 10.428 16.6288 10.2728 16.5051C10.1951 16.4432 10.1175 16.3813 10.0399 16.3158L2.15651 20.8027L-1.63551 18.6739C-1.76856 18.9032 -1.90162 19.1652 -2.03467 19.4272L2.12324 21.7853L10.7384 16.9054ZM11.3704 17.5604L11.8694 18.2482L2.18977 23.7503L-2.50036 21.0975C-2.46709 20.8027 -2.40057 20.5407 -2.30078 20.246L2.15651 22.7678L11.3704 17.5604ZM-2.63341 22.0145L2.15651 24.7329L12.3018 19.0014C12.8673 20.0495 13.1667 21.2613 13.1667 22.5386C13.1667 26.8617 9.60749 30.3333 5.24999 30.3333C0.859239 30.3333 -2.66667 26.8289 -2.66667 22.5386C-2.66667 22.3748 -2.66667 22.1783 -2.63341 22.0145Z" fill="white"/>
</g>
</svg>
