<svg width="40" height="44" viewBox="0 0 40 44" fill="none" xmlns="http://www.w3.org/2000/svg">
<path d="M20 42C8.9543 42 0 33.0457 0 22C0 10.9543 8.9543 2 20 2C31.0457 2 40 10.9543 40 22C40 33.0457 31.0457 42 20 42Z" fill="#403A47"/>
<path fill-rule="evenodd" clip-rule="evenodd" d="M22.5 14H18C17.5858 14 17.25 14.3358 17.25 14.75V21.5H15.75C15.3358 21.5 15 21.8358 15 22.25C15 22.6642 15.3358 23 15.75 23H17.25V25H15.75C15.3358 25 15 25.3358 15 25.75C15 26.1642 15.3358 26.5 15.75 26.5H17.25V29.25C17.25 29.6642 17.5858 30 18 30C18.4142 30 18.75 29.6642 18.75 29.25V26.5H20.25C20.6642 26.5 21 26.1642 21 25.75C21 25.3358 20.6642 25 20.25 25H18.75V23H22.5C24.9853 23 27 20.9853 27 18.5C27 16.0147 24.9853 14 22.5 14ZM18.75 21.5V15.5H22.5C24.1569 15.5 25.5 16.8431 25.5 18.5C25.5 20.1569 24.1569 21.5 22.5 21.5H18.75Z" fill="white"/>
</svg>
