<svg width="40" height="28" viewBox="0 0 40 28" fill="none" xmlns="http://www.w3.org/2000/svg">
<rect width="40" height="28" fill="#352F3D"/>
<rect width="40" height="28" rx="2.5" fill="#F7D300"/>
<mask id="mask0_0_11984" style="mask-type:luminance" maskUnits="userSpaceOnUse" x="0" y="0" width="40" height="28">
<rect width="40" height="28" rx="2.5" fill="white"/>
</mask>
<g mask="url(#mask0_0_11984)">
<path d="M-1.33489 27.8112L0.999059 30.2177L6.46743 24.6059L12.1187 30.3333L14.4868 27.9613L8.89224 22.3033L9.96774 21.2504V19.0057L10.6428 18.4272V20.1858L11.5123 20.9032L14.109 18.2767L14.944 18.9246C15.4361 17.0849 12.5874 12.9077 10.2309 15.2219L7.48496 17.9756L8.04573 18.6584L6.64996 20.0353L5.30024 18.6929L6.00943 18.0446L3.00082 15.1059C0.73594 13.2196 -1.5865 16.0897 -1.66667 18.8896L-0.843189 18.1956L1.68481 20.9497L2.58847 20.1863V18.4967L3.14883 18.9246V21.1348L4.24694 22.2455L-1.33489 27.8112Z" fill="black"/>
</g>
</svg>
