<svg width="120" height="32" viewBox="0 0 120 32" fill="none" xmlns="http://www.w3.org/2000/svg">
<path d="M0.295455 25H9.71591C15.0455 25 17.6591 22.2841 17.6591 18.6591C17.6591 15.1364 15.1591 13.0682 12.6818 12.9432V12.7159C14.9545 12.1818 16.75 10.5909 16.75 7.76136C16.75 4.29545 14.25 1.72727 9.20455 1.72727H0.295455V25ZM4.51136 21.4773V14.6591H9.15909C11.7614 14.6591 13.375 16.25 13.375 18.3295C13.375 20.1818 12.1023 21.4773 9.04545 21.4773H4.51136ZM4.51136 11.625V5.20454H8.77273C11.25 5.20454 12.5341 6.51136 12.5341 8.30682C12.5341 10.3523 10.875 11.625 8.68182 11.625H4.51136ZM21.1449 25H25.2585V7.54545H21.1449V25ZM23.2131 5.06818C24.5199 5.06818 25.5881 4.06818 25.5881 2.84091C25.5881 1.60227 24.5199 0.602272 23.2131 0.602272C21.8949 0.602272 20.8267 1.60227 20.8267 2.84091C20.8267 4.06818 21.8949 5.06818 23.2131 5.06818ZM37.0795 31.9091C41.7955 31.9091 45.2727 29.75 45.2727 25.2841V7.54545H41.2159V10.4318H40.9886C40.3636 9.17045 39.0568 7.31818 35.9773 7.31818C31.9432 7.31818 28.7727 10.4773 28.7727 16.2159C28.7727 21.9091 31.9432 24.75 35.9659 24.75C38.9545 24.75 40.3523 23.1477 40.9886 21.8636H41.1932V25.1705C41.1932 27.7386 39.4886 28.7955 37.1477 28.7955C34.6705 28.7955 33.5795 27.625 33.0795 26.6023L29.375 27.5C30.125 29.9432 32.6364 31.9091 37.0795 31.9091ZM37.1136 21.5227C34.3977 21.5227 32.9659 19.4091 32.9659 16.1932C32.9659 13.0227 34.375 10.6932 37.1136 10.6932C39.7614 10.6932 41.2159 12.8864 41.2159 16.1932C41.2159 19.5227 39.7386 21.5227 37.1136 21.5227ZM57.4261 25H61.5398V7.54545H57.4261V25ZM59.4943 5.06818C60.8011 5.06818 61.8693 4.06818 61.8693 2.84091C61.8693 1.60227 60.8011 0.602272 59.4943 0.602272C58.1761 0.602272 57.108 1.60227 57.108 2.84091C57.108 4.06818 58.1761 5.06818 59.4943 5.06818ZM73.3835 25.3409C77.7699 25.3409 80.5653 22.7386 80.8608 19.0341H76.929C76.5767 20.9091 75.2244 21.9886 73.4176 21.9886C70.8494 21.9886 69.1903 19.8409 69.1903 16.2727C69.1903 12.75 70.8835 10.6364 73.4176 10.6364C75.3949 10.6364 76.6108 11.9091 76.929 13.5909H80.8608C80.5767 9.80682 77.6222 7.31818 73.3608 7.31818C68.2472 7.31818 65.0199 11.0114 65.0199 16.3409C65.0199 21.625 68.1676 25.3409 73.3835 25.3409ZM91.8523 25.3409C96.9659 25.3409 100.216 21.7386 100.216 16.3409C100.216 10.9318 96.9659 7.31818 91.8523 7.31818C86.7386 7.31818 83.4886 10.9318 83.4886 16.3409C83.4886 21.7386 86.7386 25.3409 91.8523 25.3409ZM91.875 22.0455C89.0455 22.0455 87.6591 19.5227 87.6591 16.3295C87.6591 13.1364 89.0455 10.5795 91.875 10.5795C94.6591 10.5795 96.0455 13.1364 96.0455 16.3295C96.0455 19.5227 94.6591 22.0455 91.875 22.0455ZM107.821 14.7727C107.821 12.25 109.344 10.7955 111.514 10.7955C113.639 10.7955 114.912 12.1932 114.912 14.5227V25H119.026V13.8864C119.037 9.70455 116.651 7.31818 113.048 7.31818C110.435 7.31818 108.639 8.56818 107.844 10.5114H107.639V7.54545H103.707V25H107.821V14.7727Z" fill="white"/>
</svg>
