<svg width="123" height="165" viewBox="0 0 123 165" fill="none" xmlns="http://www.w3.org/2000/svg">
<rect x="0.5" y="0.5" width="122" height="164" rx="4.5" stroke="#7B61FF" stroke-dasharray="10 5"/>
<path d="M32.0364 20.2989C40.1559 18.6612 48.0727 23.9159 49.7099 32.0381C49.8769 32.8671 49.9722 33.6939 50 34.512M29.8605 20.9094C23.0035 23.4015 18.813 30.5989 20.2988 37.9701M20.3069 37.9686C20.3504 38.184 20.3982 38.3973 20.4504 38.6086" stroke="#FB7B7B" stroke-linecap="round"/>
<path d="M31.1289 49.4997C31.7083 48.8401 32.2353 48.1368 32.7053 47.397M33.3636 46.2667C35.136 42.935 35.8087 38.9921 35.0047 35.0039" stroke="#FB7B7B" stroke-linecap="round"/>
<path d="M33.2278 49.9042C34.7856 47.9103 35.938 45.6088 36.593 43.1382M36.9558 41.4628C37.3276 39.2604 37.3097 36.9539 36.8419 34.6336C36.642 33.6111 35.6481 32.9504 34.6277 33.1562C33.6075 33.3621 32.9472 34.3562 33.1529 35.377C34.1851 40.4295 32.5361 45.4027 29.1895 48.8356" stroke="#FB7B7B" stroke-linecap="round"/>
<path d="M35.4792 50.0003C36.1372 49.0385 36.7141 48.0215 37.2026 46.9606M37.6862 45.8218C39.0726 42.2653 39.49 38.2832 38.6797 34.2635C38.2737 32.2268 36.292 30.9096 34.2575 31.32M32.9653 31.8435C31.7032 32.6568 31.0018 34.1869 31.3165 35.7479C31.9854 39.0053 31.3748 42.2259 29.8361 44.8971M29.1906 45.9086C28.6722 46.645 28.0784 47.3288 27.4175 47.9473" stroke="#FB7B7B" stroke-linecap="round"/>
<path d="M37.8707 49.7287C40.5728 45.1211 41.6564 39.5411 40.5177 33.8928L40.5204 33.8917C39.9056 30.8421 36.9361 28.8684 33.8874 29.4833C30.8387 30.0983 28.8656 33.0687 29.4804 36.1184L29.4908 36.1166C30.3222 40.2417 28.7854 44.2942 25.8169 46.8659" stroke="#FB7B7B" stroke-linecap="round"/>
<path d="M40.3811 49.0085C42.6418 44.3666 43.4546 38.9734 42.3556 33.5214C41.5374 29.4563 37.5801 26.8262 33.5173 27.6457C29.4543 28.4652 26.8248 32.4238 27.644 36.4881C28.3641 40.0147 26.9956 43.4785 24.3931 45.6108" stroke="#FB7B7B" stroke-linecap="round"/>
<path d="M23.1519 44.2034C25.0868 42.6485 26.1889 40.1819 25.9279 37.5959M25.6731 35.9682C25.1765 31.2137 28.3686 26.7731 33.1483 25.809C36.0789 25.2179 38.9656 26.0631 41.0795 27.8601M42.1422 28.9209C43.1429 30.0941 43.8679 31.5311 44.1944 33.1503C44.6649 35.4834 44.8103 37.8065 44.6619 40.0727M44.5514 41.3075C44.3007 43.5179 43.7704 45.665 42.9907 47.704" stroke="#FB7B7B" stroke-linecap="round"/>
<path d="M45.647 45.5721C46.4407 42.5944 46.7534 39.4525 46.512 36.254M46.3324 34.5589C46.2516 33.967 46.1516 33.3739 46.0319 32.7802C44.8016 26.6869 38.8684 22.7438 32.7773 23.9722M30.9464 24.5045C25.9204 26.4396 22.8717 31.7708 23.9719 37.2291C24.3982 39.3139 23.6083 41.3627 22.0923 42.6476" stroke="#FB7B7B" stroke-linecap="round"/>
<path d="M48.2382 42.0561C48.4156 40.6305 48.4916 39.1811 48.4596 37.7171M48.3519 35.7503C48.2546 34.6414 48.0947 33.5265 47.8696 32.4096C47.5142 30.6514 46.8232 29.0466 45.8769 27.6487M44.6354 26.0863C41.6289 22.844 37.0574 21.1976 32.4069 22.1356C28.0283 23.0187 24.6017 25.9864 22.9517 29.7973M22.2812 31.7571C21.8067 33.6109 21.7319 35.5979 22.1354 37.5995C22.3884 38.8318 22.0025 40.0451 21.208 40.9024" stroke="#FB7B7B" stroke-linecap="round"/>
<path d="M52.097 70.7976C73.7491 66.4305 94.8605 80.4428 99.2264 102.102C99.6719 104.312 99.9258 106.517 100 108.699M46.2946 72.4254C28.0093 79.0711 16.8347 98.264 20.7968 117.92M20.8184 117.916C20.9344 118.49 21.0617 119.059 21.201 119.623" stroke="#FB7B7B" stroke-linecap="round"/>
<path d="M49.6771 148.665C51.2221 146.906 52.6275 145.031 53.8807 143.058M55.6363 140.044C60.3627 131.16 62.1564 120.645 60.0127 110.01" stroke="#FB7B7B" stroke-linecap="round"/>
<path d="M55.2742 149.744C59.4282 144.427 62.5014 138.29 64.248 131.701M65.2154 127.234C66.207 121.361 66.1592 115.21 64.9119 109.023C64.3787 106.296 61.7284 104.534 59.0073 105.083C56.2868 105.632 54.5258 108.283 55.0745 111.005C57.827 124.478 53.4298 137.74 44.5052 146.894" stroke="#FB7B7B" stroke-linecap="round"/>
<path d="M61.2778 150.001C63.0324 147.436 64.571 144.724 65.8736 141.895M67.1633 138.858C70.8602 129.374 71.9732 118.755 69.8125 108.036C68.7299 102.605 63.4453 99.0926 58.0199 100.187M54.574 101.583C51.2085 103.752 49.338 107.832 50.1773 111.995C51.9611 120.681 50.3327 129.269 46.2296 136.392M44.5083 139.09C43.1259 141.053 41.5422 142.877 39.7799 144.526" stroke="#FB7B7B" stroke-linecap="round"/>
<path d="M67.6551 149.276C74.8607 136.989 77.7503 122.109 74.7139 107.048L74.7211 107.045C73.0817 98.9123 65.163 93.6492 57.0332 95.2891C48.9031 96.9289 43.6415 104.85 45.2812 112.982L45.3087 112.978C47.5258 123.978 43.4278 134.784 35.5117 141.642" stroke="#FB7B7B" stroke-linecap="round"/>
<path d="M74.3495 147.356C80.3781 134.977 82.5456 120.596 79.615 106.057C77.4331 95.2169 66.8803 88.2034 56.0462 90.3886C45.2115 92.574 38.1995 103.13 40.3841 113.968C42.3042 123.372 38.655 132.609 31.7148 138.295" stroke="#FB7B7B" stroke-linecap="round"/>
<path d="M28.4049 134.542C33.5648 130.396 36.5037 123.818 35.8077 116.922M35.1281 112.582C33.8039 99.9035 42.3162 88.0619 55.0622 85.4911C62.8771 83.9148 70.5749 86.1686 76.2119 90.9607M79.0458 93.7894C81.7145 96.918 83.6478 100.75 84.5182 105.068C85.773 111.289 86.1606 117.484 85.7649 123.527M85.4705 126.82C84.8017 132.714 83.3877 138.44 81.3085 143.877" stroke="#FB7B7B" stroke-linecap="round"/>
<path d="M88.3921 138.192C90.5085 130.251 91.3424 121.873 90.6986 113.344M90.2197 108.824C90.0043 107.245 89.7376 105.664 89.4185 104.081C86.1376 87.8319 70.3159 77.3172 54.0728 80.593M49.1905 82.0124C35.7879 87.1724 27.6579 101.389 30.5918 115.944C31.7285 121.503 29.6222 126.967 25.5795 130.393" stroke="#FB7B7B" stroke-linecap="round"/>
<path d="M95.3019 128.816C95.775 125.015 95.9775 121.15 95.8923 117.246M95.6051 112.001C95.3456 109.044 94.9192 106.071 94.3188 103.093C93.3712 98.404 91.5286 94.1246 89.0049 90.3969M85.6943 86.2307C77.677 77.5846 65.4863 73.1943 53.0851 75.6955C41.4088 78.0505 32.2712 85.9643 27.8712 96.1266M26.0831 101.353C24.8179 106.296 24.6184 111.595 25.6943 116.932C26.3689 120.218 25.3398 123.454 23.2213 125.74" stroke="#FB7B7B" stroke-linecap="round"/>
</svg>
