<svg width="130" height="188" viewBox="0 0 130 188" fill="none" xmlns="http://www.w3.org/2000/svg">
<rect x="0.5" y="0.5" width="129" height="187" rx="4.5" stroke="#7B61FF" stroke-dasharray="10 5"/>
<path fill-rule="evenodd" clip-rule="evenodd" d="M21.6722 28.0514C21.6722 28.5163 21.2986 28.8934 20.8362 28.8934C20.3745 28.8934 20.0009 28.5163 20.0009 28.0514V24.1055C20.0009 21.8415 21.8285 20 24.0764 20H28.0713C28.5336 20 28.908 20.3771 28.908 20.842C28.908 21.307 28.5336 21.6841 28.0713 21.6841H24.0764C22.7511 21.6841 21.6722 22.7699 21.6722 24.1055V28.0514ZM45.9237 20H42.0059C41.5442 20 41.1698 20.3771 41.1698 20.842C41.1698 21.307 41.5442 21.6841 42.0059 21.6841H45.9237C47.2497 21.6841 48.3286 22.7699 48.3286 24.1055V28.1297C48.3286 28.5947 48.7022 28.971 49.1639 28.971C49.6262 28.971 49.9999 28.5947 49.9999 28.1297V24.1055C49.9999 21.8415 48.1715 20 45.9237 20ZM27.474 33.3068V30.9367C27.474 30.3297 27.9618 29.8383 28.5645 29.8383C29.1672 29.8383 29.655 30.3297 29.655 30.9367V33.3068C29.655 33.9138 29.1672 34.4051 28.5645 34.4051C27.9618 34.4051 27.474 33.9138 27.474 33.3068ZM42.5262 33.307C42.5262 33.914 42.0384 34.4053 41.4357 34.4053C40.833 34.4053 40.3452 33.914 40.3452 33.307V30.9368C40.3452 30.3298 40.833 29.8385 41.4357 29.8385C42.0384 29.8385 42.5262 30.3298 42.5262 30.9368V33.307ZM33.3631 38.8952H33.8924C35.2482 38.8952 36.3504 37.7844 36.3504 36.4188V30.742C36.3504 30.2771 35.9767 29.9 35.5151 29.9C35.0527 29.9 34.679 30.2771 34.679 30.742V36.4188C34.679 36.8552 34.3257 37.2111 33.8924 37.2111H33.3631C32.9008 37.2111 32.5271 37.5882 32.5271 38.0531C32.5271 38.5181 32.9008 38.8952 33.3631 38.8952ZM35.0112 42.6347C36.7269 42.6347 38.3481 41.994 39.2416 40.9638C39.5462 40.6138 40.0747 40.578 40.4215 40.8833C40.7697 41.1893 40.8046 41.7217 40.5008 42.0717C39.2816 43.479 37.2285 44.3188 35.0112 44.3188C32.7742 44.3188 30.7132 43.4673 29.4955 42.0424C29.1938 41.6894 29.233 41.1579 29.5835 40.8547C29.9324 40.5516 30.4609 40.5911 30.7626 40.9441C31.6532 41.9867 33.2817 42.6347 35.0112 42.6347ZM49.164 41.0288C48.7023 41.0288 48.3287 41.4059 48.3287 41.8709V45.8944C48.3287 47.2299 47.2498 48.3158 45.9237 48.3158H42.006C41.5443 48.3158 41.1699 48.6929 41.1699 49.1578C41.1699 49.6228 41.5443 49.9999 42.006 49.9999H45.9237C48.1716 49.9999 50 48.1584 50 45.8944V41.8709C50 41.4059 49.6263 41.0288 49.164 41.0288ZM24.0763 48.3159H28.0711C28.5335 48.3159 28.9072 48.693 28.9072 49.1579C28.9072 49.6229 28.5335 50 28.0711 50H24.0763C21.8284 50 20 48.1585 20 45.8945V41.9486C20 41.4837 20.3744 41.1066 20.836 41.1066C21.2984 41.1066 21.6721 41.4837 21.6721 41.9486V45.8945C21.6721 47.23 22.751 48.3159 24.0763 48.3159Z" fill="#007AFF"/>
<path fill-rule="evenodd" clip-rule="evenodd" d="M24.4592 91.4703C24.4592 92.7102 23.4628 93.7158 22.2298 93.7158C20.9987 93.7158 20.0023 92.7102 20.0023 91.4703V80.948C20.0023 74.9107 24.8761 70 30.8704 70H41.5233C42.7563 70 43.7547 71.0056 43.7547 72.2454C43.7547 73.4853 42.7563 74.4909 41.5233 74.4909H30.8704C27.3362 74.4909 24.4592 77.3865 24.4592 80.948V91.4703ZM89.1296 70H78.6822C77.4512 70 76.4528 71.0056 76.4528 72.2454C76.4528 73.4853 77.4512 74.4909 78.6822 74.4909H89.1296C92.6657 74.4909 95.5427 77.3865 95.5427 80.948V91.6792C95.5427 92.9191 96.5392 93.9227 97.7702 93.9227C99.0032 93.9227 99.9997 92.9191 99.9997 91.6792V80.948C99.9997 74.9107 95.124 70 89.1296 70ZM39.9307 105.485V99.1645C39.9307 97.5458 41.2315 96.2357 42.8386 96.2357C44.4458 96.2357 45.7466 97.5458 45.7466 99.1645V105.485C45.7466 107.104 44.4458 108.414 42.8386 108.414C41.2315 108.414 39.9307 107.104 39.9307 105.485ZM80.0698 105.485C80.0698 107.104 78.769 108.414 77.1619 108.414C75.5547 108.414 74.2539 107.104 74.2539 105.485V99.1648C74.2539 97.5462 75.5547 96.236 77.1619 96.236C78.769 96.236 80.0698 97.5462 80.0698 99.1648V105.485ZM55.635 120.387H57.0464C60.662 120.387 63.601 117.425 63.601 113.783V98.6452C63.601 97.4053 62.6045 96.3997 61.3735 96.3997C60.1405 96.3997 59.144 97.4053 59.144 98.6452V113.783C59.144 114.947 58.2018 115.896 57.0464 115.896H55.635C54.4021 115.896 53.4056 116.902 53.4056 118.141C53.4056 119.381 54.4021 120.387 55.635 120.387ZM60.0299 130.359C64.6051 130.359 68.9283 128.651 71.3109 125.904C72.1232 124.97 73.5326 124.875 74.4573 125.689C75.3859 126.505 75.479 127.924 74.6686 128.858C71.4175 132.611 65.9428 134.85 60.0299 134.85C54.0646 134.85 48.5685 132.579 45.3213 128.78C44.5167 127.838 44.6214 126.421 45.5559 125.613C46.4864 124.804 47.8958 124.91 48.7004 125.851C51.0752 128.631 55.4178 130.359 60.0299 130.359ZM97.7705 126.077C96.5395 126.077 95.543 127.082 95.543 128.322V139.052C95.543 142.613 92.6661 145.509 89.13 145.509H78.6825C77.4515 145.509 76.4531 146.514 76.4531 147.754C76.4531 148.994 77.4515 150 78.6825 150H89.13C95.1243 150 100 145.089 100 139.052V128.322C100 127.082 99.0035 126.077 97.7705 126.077ZM30.87 145.509H41.523C42.7559 145.509 43.7524 146.515 43.7524 147.754C43.7524 148.994 42.7559 150 41.523 150H30.87C24.8757 150 20 145.089 20 139.052V128.53C20 127.29 20.9984 126.284 22.2295 126.284C23.4624 126.284 24.4589 127.29 24.4589 128.53V139.052C24.4589 142.613 27.3359 145.509 30.87 145.509Z" fill="#007AFF"/>
</svg>
