<svg width="40" height="40" viewBox="0 0 40 40" fill="none" xmlns="http://www.w3.org/2000/svg">
<path d="M20 40C8.9543 40 0 31.0457 0 20C0 8.9543 8.9543 0 20 0C31.0457 0 40 8.9543 40 20C40 31.0457 31.0457 40 20 40Z" fill="#6C78E6"/>
<path fill-rule="evenodd" clip-rule="evenodd" d="M9.71148 19.3787C9.0523 19.6534 9.11365 20.6067 9.80261 20.7946L17.1673 22.8031L19.1759 30.1678C19.3638 30.8568 20.3171 30.9181 20.5917 30.259L27.6628 13.2884C27.9204 12.6702 27.3002 12.0501 26.682 12.3076L9.71148 19.3787ZM17.9755 21.4688L12.3062 19.9226L25.5777 14.3928L20.0479 27.6643L18.5017 21.995C18.4318 21.7388 18.2317 21.5386 17.9755 21.4688Z" fill="white"/>
</svg>
