<svg width="40" height="40" viewBox="0 0 40 40" fill="none" xmlns="http://www.w3.org/2000/svg">
<path d="M20 40C8.9543 40 0 31.0457 0 20C0 8.9543 8.9543 0 20 0C31.0457 0 40 8.9543 40 20C40 31.0457 31.0457 40 20 40Z" fill="#403A47"/>
<path fill-rule="evenodd" clip-rule="evenodd" d="M19.1088 15.2197C19.4017 15.5126 19.8765 15.5126 20.1694 15.2197L21.9372 13.4519C23.2064 12.1827 25.2642 12.1827 26.5334 13.4519C27.8026 14.7211 27.8026 16.7789 26.5334 18.0481L23.705 20.8765C22.4357 22.1457 20.378 22.1457 19.1088 20.8765C18.8159 20.5836 18.341 20.5836 18.0481 20.8765C17.7552 21.1694 17.7552 21.6443 18.0481 21.9372C19.9031 23.7922 22.9106 23.7922 24.7656 21.9372L27.594 19.1088C29.449 17.2538 29.449 14.2462 27.594 12.3912C25.739 10.5363 22.7315 10.5363 20.8765 12.3912L19.1088 14.159C18.8159 14.4519 18.8159 14.9268 19.1088 15.2197ZM20.8765 24.7656C20.5836 24.4727 20.1088 24.4727 19.8159 24.7656L18.0481 26.5334C16.7789 27.8026 14.7211 27.8026 13.4519 26.5334C12.1827 25.2642 12.1827 23.2064 13.4519 21.9372L16.2803 19.1088C17.5495 17.8396 19.6073 17.8396 20.8765 19.1088C21.1694 19.4017 21.6443 19.4017 21.9372 19.1088C22.2301 18.8159 22.2301 18.341 21.9372 18.0481C20.0822 16.1931 17.0747 16.1931 15.2197 18.0481L12.3912 20.8765C10.5363 22.7315 10.5363 25.739 12.3912 27.594C14.2462 29.449 17.2538 29.449 19.1088 27.594L20.8765 25.8263C21.1694 25.5334 21.1694 25.0585 20.8765 24.7656Z" fill="white"/>
</svg>
