<svg width="40" height="40" viewBox="0 0 40 40" fill="none" xmlns="http://www.w3.org/2000/svg">
<rect width="40" height="40" rx="20" fill="white"/>
<path fill-rule="evenodd" clip-rule="evenodd" d="M21.5 10.8107V14H24.6893L21.5 10.8107ZM27.4921 15.1088C27.4973 15.1551 27.5 15.2023 27.5 15.25V24.75C27.5 26.8211 25.8211 28.5 23.75 28.5C23.3358 28.5 23 28.1642 23 27.75C23 27.3358 23.3358 27 23.75 27C24.9926 27 26 25.9926 26 24.75V15.5H21.25C20.5596 15.5 20 14.9404 20 14.25V9.5H15.75C14.5074 9.5 13.5 10.5074 13.5 11.75V21.75C13.5 22.1642 13.1642 22.5 12.75 22.5C12.3358 22.5 12 22.1642 12 21.75V11.75C12 9.67893 13.6789 8 15.75 8H20.25C20.2977 8 20.3449 8.00268 20.3912 8.00789C20.6176 7.97488 20.8561 8.04547 21.0303 8.21967L27.2803 14.4697C27.4545 14.6439 27.5251 14.8824 27.4921 15.1088ZM12.75 28.25C12.3358 28.25 12 27.9142 12 27.5C12 27.0858 12.3358 26.75 12.75 26.75H17.909L16.1893 25.0303C15.8964 24.7374 15.8964 24.2626 16.1893 23.9697C16.4822 23.6768 16.9571 23.6768 17.25 23.9697L20.25 26.9697C20.5429 27.2626 20.5429 27.7374 20.25 28.0303L17.25 31.0303C16.9571 31.3232 16.4822 31.3232 16.1893 31.0303C15.8964 30.7374 15.8964 30.2626 16.1893 29.9697L17.909 28.25H12.75Z" fill="#6C78E6"/>
</svg>
