<svg width="40" height="40" viewBox="0 0 40 40" fill="none" xmlns="http://www.w3.org/2000/svg">
<path d="M20 40C8.9543 40 0 31.0457 0 20C0 8.9543 8.9543 0 20 0C31.0457 0 40 8.9543 40 20C40 31.0457 31.0457 40 20 40Z" fill="#403A47"/>
<path fill-rule="evenodd" clip-rule="evenodd" d="M22 9.25H14C12.4812 9.25 11.25 10.4812 11.25 12V28C11.25 29.5188 12.4812 30.75 14 30.75H26C27.5188 30.75 28.75 29.5188 28.75 28V16C28.75 15.8011 28.671 15.6103 28.5303 15.4697L22.5303 9.46967C22.3897 9.32902 22.1989 9.25 22 9.25ZM27.25 28V16.75H22C21.5858 16.75 21.25 16.4142 21.25 16V10.75H14C13.3096 10.75 12.75 11.3096 12.75 12V28C12.75 28.6904 13.3096 29.25 14 29.25H26C26.6904 29.25 27.25 28.6904 27.25 28ZM26.1893 15.25L22.75 11.8107V15.25H26.1893ZM16 20.25H24C24.4142 20.25 24.75 20.5858 24.75 21C24.75 21.4142 24.4142 21.75 24 21.75H16C15.5858 21.75 15.25 21.4142 15.25 21C15.25 20.5858 15.5858 20.25 16 20.25ZM24 24.25H16C15.5858 24.25 15.25 24.5858 15.25 25C15.25 25.4142 15.5858 25.75 16 25.75H24C24.4142 25.75 24.75 25.4142 24.75 25C24.75 24.5858 24.4142 24.25 24 24.25ZM16 16.25H18C18.4142 16.25 18.75 16.5858 18.75 17C18.75 17.4142 18.4142 17.75 18 17.75H16C15.5858 17.75 15.25 17.4142 15.25 17C15.25 16.5858 15.5858 16.25 16 16.25Z" fill="white"/>
</svg>
