<svg width="40" height="40" viewBox="0 0 40 40" fill="none" xmlns="http://www.w3.org/2000/svg">
<path d="M20 40C8.9543 40 0 31.0457 0 20C0 8.9543 8.9543 0 20 0C31.0457 0 40 8.9543 40 20C40 31.0457 31.0457 40 20 40Z" fill="#6C78E6"/>
<path fill-rule="evenodd" clip-rule="evenodd" d="M20 12C19.5858 12 19.25 12.3358 19.25 12.75V19.25H12.75C12.3358 19.25 12 19.5858 12 20C12 20.4142 12.3358 20.75 12.75 20.75H19.25V27.25C19.25 27.6642 19.5858 28 20 28C20.4142 28 20.75 27.6642 20.75 27.25V20.75H27.25C27.6642 20.75 28 20.4142 28 20C28 19.5858 27.6642 19.25 27.25 19.25H20.75V12.75C20.75 12.3358 20.4142 12 20 12Z" fill="white"/>
</svg>
